<?xml version="1.0" encoding="UTF-8" standalone="no"?>
<svg width="100px" height="87px" viewBox="0 0 100 87" version="1.1" xmlns="http://www.w3.org/2000/svg" xmlns:xlink="http://www.w3.org/1999/xlink" xmlns:sketch="http://www.bohemiancoding.com/sketch/ns">
    <!-- Generator: Sketch 3.4.3 (16618) - http://www.bohemiancoding.com/sketch -->
    <title>谷澤</title>
    <desc>Created with Sketch.</desc>
    <defs>
        <path id="path-1" d="M0,0.161111111 L99.5055556,0.161111111 L99.5055556,86.1111111 L0,86.1111111"></path>
    </defs>
    <g id="Page-1" stroke="none" stroke-width="1" fill="none" fill-rule="evenodd" sketch:type="MSPage">
        <g id="Desktop" sketch:type="MSArtboardGroup" transform="translate(-292.000000, -1563.000000)">
            <g id="Group" sketch:type="MSLayerGroup" transform="translate(292.000000, 923.000000)">
                <g id="谷澤" transform="translate(0.000000, 640.000000)">
                    <g id="Group-3">
                        <mask id="mask-2" sketch:name="Clip 2" fill="white">
                            <use xlink:href="#path-1"></use>
                        </mask>
                        <g id="Clip-2"></g>
                        <path d="M96.2857407,45.4172222 C101.629259,68.6551852 107.54037,85.1181481 49.4737037,85.1181481 C-6.34851852,85.1181481 -2.30407407,68.6551852 2.66166667,45.4172222 C7.67185185,21.9746296 25.5024074,0.160740741 49.4737037,0.160740741 C73.445,0.160740741 90.9144444,22.0551852 96.2857407,45.4172222" id="Fill-1" fill="#1F2338" sketch:type="MSShapeGroup" mask="url(#mask-2)"></path>
                    </g>
                    <path d="M85.6112963,49.0388889 C85.6112963,69.0018519 86.5094444,85.1851852 49.465,85.1851852 C13.3187037,85.1851852 13.3187037,69.0018519 13.3187037,49.0388889 C13.3187037,29.0759259 29.502037,12.8925926 49.465,12.8925926 C69.427963,12.8925926 85.6112963,29.0759259 85.6112963,49.0388889" id="Fill-4" fill="#FFFFFF" sketch:type="MSShapeGroup"></path>
                    <path d="M85.6112963,49.0388889 C85.6112963,69.0018519 86.5094444,85.1851852 49.465,85.1851852 C13.3187037,85.1851852 13.3187037,69.0018519 13.3187037,49.0388889 C13.3187037,29.0759259 29.502037,12.8925926 49.465,12.8925926 C69.427963,12.8925926 85.6112963,29.0759259 85.6112963,49.0388889 L85.6112963,49.0388889 Z" id="Stroke-6" stroke="#1F2338" stroke-width="2" sketch:type="MSShapeGroup"></path>
                    <path d="M28.8364815,67.8969444 C28.8364815,71.5126852 25.905,74.4441667 22.2892593,74.4441667 C18.6725926,74.4441667 15.7411111,71.5126852 15.7411111,67.8969444 C15.7411111,64.2812037 18.6725926,61.3497222 22.2892593,61.3497222 C25.905,61.3497222 28.8364815,64.2812037 28.8364815,67.8969444" id="Fill-8" fill="#CC1457" sketch:type="MSShapeGroup"></path>
                    <path d="M83.4661111,67.8969444 C83.4661111,71.5126852 80.5346296,74.4441667 76.9188889,74.4441667 C73.3022222,74.4441667 70.3707407,71.5126852 70.3707407,67.8969444 C70.3707407,64.2812037 73.3022222,61.3497222 76.9188889,61.3497222 C80.5346296,61.3497222 83.4661111,64.2812037 83.4661111,67.8969444" id="Fill-10" fill="#CC1457" sketch:type="MSShapeGroup"></path>
                    <path d="M85.305463,32.7189815 C90.0110185,47.175463 74.0536111,46.225463 49.5721296,46.225463 C24.7499074,46.225463 9.04990741,47.1375 13.8378704,32.7189815 C22.1323148,7.74490741 34.930463,3.64583333 49.5721296,3.64583333 C65.4721296,3.64583333 77.5434259,8.87453704 85.305463,32.7189815" id="Fill-12" fill="#1F2338" sketch:type="MSShapeGroup"></path>
                    <path d="M38.1762037,58.8802778 C38.1762037,60.9256481 35.8437963,62.5839815 32.9660185,62.5839815 C30.0891667,62.5839815 27.7558333,60.9256481 27.7558333,58.8802778 C27.7558333,56.8349074 30.0891667,55.1765741 32.9660185,55.1765741 C35.8437963,55.1765741 38.1762037,56.8349074 38.1762037,58.8802778" id="Fill-14" fill="#1F2338" sketch:type="MSShapeGroup"></path>
                    <path d="M71.2747222,58.8802778 C71.2747222,60.9256481 68.9423148,62.5839815 66.064537,62.5839815 C63.1876852,62.5839815 60.8543519,60.9256481 60.8543519,58.8802778 C60.8543519,56.8349074 63.1876852,55.1765741 66.064537,55.1765741 C68.9423148,55.1765741 71.2747222,56.8349074 71.2747222,58.8802778" id="Fill-16" fill="#1F2338" sketch:type="MSShapeGroup"></path>
                    <path d="M59.5025926,53.0194444 C59.5025926,53.0194444 62.1757407,51.737037 65.3507407,51.3222222 C68.6025926,50.8981481 71.4387037,51.462037 71.4387037,51.462037" id="Stroke-18" stroke="#1F2338" stroke-linecap="round" stroke-linejoin="round" sketch:type="MSShapeGroup"></path>
                    <path d="M39.0310185,53.0194444 C39.0310185,53.0194444 36.3578704,51.737037 33.1828704,51.3222222 C29.9310185,50.8981481 27.0949074,51.462037 27.0949074,51.462037" id="Stroke-20" stroke="#1F2338" stroke-linecap="round" stroke-linejoin="round" sketch:type="MSShapeGroup"></path>
                    <path d="M60.7040741,73.0778704 C60.7040741,75.8556481 55.9364815,78.3223148 50.0559259,78.3223148 C44.1753704,78.3223148 39.4077778,75.8556481 39.4077778,73.0778704 C39.4077778,72.1519444 60.7040741,72.1519444 60.7040741,73.0778704" id="Fill-22" fill="#1F2338" sketch:type="MSShapeGroup"></path>
                </g>
            </g>
        </g>
    </g>
</svg>