<?xml version="1.0" encoding="UTF-8" standalone="no"?>
<svg width="88px" height="91px" viewBox="0 0 88 91" version="1.1" xmlns="http://www.w3.org/2000/svg" xmlns:xlink="http://www.w3.org/1999/xlink" xmlns:sketch="http://www.bohemiancoding.com/sketch/ns">
    <!-- Generator: Sketch 3.4.3 (16618) - http://www.bohemiancoding.com/sketch -->
    <title>島原</title>
    <desc>Created with Sketch.</desc>
    <defs>
        <path id="path-1" d="M0,0.569368421 L87.4269474,0.569368421 L87.4269474,90 L0,90"></path>
    </defs>
    <g id="Page-1" stroke="none" stroke-width="1" fill="none" fill-rule="evenodd" sketch:type="MSPage">
        <g id="Desktop" sketch:type="MSArtboardGroup" transform="translate(-638.000000, -1346.000000)">
            <g id="Group" sketch:type="MSLayerGroup" transform="translate(292.000000, 923.000000)">
                <g id="島原" transform="translate(346.000000, 423.000000)">
                    <path d="M57.1896947,69.6122526 C61.4812737,65.3206737 65.7965368,69.6349895 71.1188526,74.9582526 C76.4421158,80.2805684 79.4149579,85.9373053 79.4149579,85.9373053 C79.4149579,85.9373053 69.0507474,86.5170947 62.5356947,83.5414105 C56.2015895,80.6490947 52.8981158,73.9038316 57.1896947,69.6122526" id="Fill-1" fill="#1F2338" sketch:type="MSShapeGroup"></path>
                    <path d="M54.2182737,66.6954 C59.4278526,63.5804526 62.5598526,68.8175053 66.4232211,75.2776105 C70.2865895,81.7377158 71.7891158,87.9496105 71.7891158,87.9496105 C71.7891158,87.9496105 61.5963789,85.9828737 56.0040632,81.5084526 C50.5671158,77.1571895 49.0086947,69.8103474 54.2182737,66.6954" id="Fill-3" fill="#1F2338" sketch:type="MSShapeGroup"></path>
                    <path d="M58.5443368,71.7427895 C60.5726526,66.0225789 66.3241263,68.0613158 73.4189684,70.5775263 C80.5138105,73.0927895 85.6305474,76.9211053 85.6305474,76.9211053 C85.6305474,76.9211053 76.5234947,81.9033158 69.3613895,82.0188947 C62.3991789,82.1316316 56.5160211,77.463 58.5443368,71.7427895" id="Fill-5" fill="#1F2338" sketch:type="MSShapeGroup"></path>
                    <path d="M61.4068105,67.2822 C65.4634421,62.7670421 70.0022842,66.8445158 75.6021789,71.8750421 C81.2020737,76.9055684 84.4733368,82.3955684 84.4733368,82.3955684 C84.4733368,82.3955684 74.1546,83.5286211 67.4898632,80.9063053 C61.0098632,78.3559895 57.3501789,71.7973579 61.4068105,67.2822" id="Fill-7" fill="#1F2338" sketch:type="MSShapeGroup"></path>
                    <path d="M87.2492211,65.7546632 C86.4373263,71.3611895 83.2390105,75.5390842 76.6368,74.5831895 C70.0355368,73.6263474 65.3413263,68.3059263 66.1532211,62.6994 C66.9660632,57.0919263 72.9761684,53.3223474 79.5783789,54.2782421 C86.1805895,55.2350842 88.0611158,60.1481368 87.2492211,65.7546632" id="Fill-9" fill="#1F2338" sketch:type="MSShapeGroup"></path>
                    <g id="Group-13">
                        <mask id="mask-2" sketch:name="Clip 12" fill="white">
                            <use xlink:href="#path-1"></use>
                        </mask>
                        <g id="Clip-12"></g>
                        <path d="M79.4132526,46.9426737 C85.9870421,74.4542526 80.1446211,89.5259368 40.6194632,89.5259368 C2.93409474,89.5259368 -4.01295789,73.3486737 1.82472632,46.9426737 C7.57998947,20.9137263 13.9614632,0.569936842 40.6194632,0.569936842 C67.2765158,0.569936842 73.2184105,21.0150947 79.4132526,46.9426737" id="Fill-11" fill="#1F2338" sketch:type="MSShapeGroup" mask="url(#mask-2)"></path>
                    </g>
                    <path d="M73.4061789,48.2797895 C73.4061789,70.7977895 77.5395474,89.0526316 40.6357579,89.0526316 C4.59217895,89.0526316 7.86533684,70.7977895 7.86533684,48.2797895 C7.86533684,25.7617895 18.1177579,7.50694737 40.6357579,7.50694737 C63.1537579,7.50694737 73.4061789,25.7617895 73.4061789,48.2797895" id="Fill-14" fill="#FFFFFF" sketch:type="MSShapeGroup"></path>
                    <path d="M73.4061789,48.2797895 C73.4061789,70.7977895 77.5395474,89.0526316 40.6357579,89.0526316 C4.59217895,89.0526316 7.86533684,70.7977895 7.86533684,48.2797895 C7.86533684,25.7617895 18.1177579,7.50694737 40.6357579,7.50694737 C63.1537579,7.50694737 73.4061789,25.7617895 73.4061789,48.2797895 L73.4061789,48.2797895 Z" id="Stroke-16" stroke="#1F2338" stroke-width="2" sketch:type="MSShapeGroup"></path>
                    <path d="M73.3435579,34.9698316 C78.2499789,54.8749895 48.8815579,47.1387789 40.7266105,43.9802526 C31.1089263,40.2552 22.6072421,32.6232 22.6072421,32.6232 C22.6072421,32.6232 19.3056632,39.8355158 16.9078737,43.1532 C13.9596632,47.2316211 8.27355789,50.7359368 8.27355789,50.7359368 C8.27355789,50.7359368 7.51376842,40.1538316 9.05703158,34.9698316 C16.6274526,9.55004211 27.3620842,5.37877895 40.7266105,5.37877895 C55.2402947,5.37877895 67.2927158,10.4216211 73.3435579,34.9698316" id="Fill-18" fill="#1F2338" sketch:type="MSShapeGroup"></path>
                    <path d="M28.9869158,58.8227684 C28.9869158,60.3925579 26.5834421,61.6648737 23.6181789,61.6648737 C20.6538632,61.6648737 18.2503895,60.3925579 18.2503895,58.8227684 C18.2503895,57.2529789 20.6538632,55.9806632 23.6181789,55.9806632 C26.5834421,55.9806632 28.9869158,57.2529789 28.9869158,58.8227684" id="Fill-20" fill="#1F2338" sketch:type="MSShapeGroup"></path>
                    <path d="M63.0921789,58.8227684 C63.0921789,60.3925579 60.6887053,61.6648737 57.7234421,61.6648737 C54.7591263,61.6648737 52.3556526,60.3925579 52.3556526,58.8227684 C52.3556526,57.2529789 54.7591263,55.9806632 57.7234421,55.9806632 C60.6887053,55.9806632 63.0921789,57.2529789 63.0921789,58.8227684" id="Fill-22" fill="#1F2338" sketch:type="MSShapeGroup"></path>
                    <path d="M24.2500737,71.8377158 C24.2500737,75.5371895 21.2507053,78.5365579 17.5512316,78.5365579 C13.8508105,78.5365579 10.8514421,75.5371895 10.8514421,71.8377158 C10.8514421,68.1382421 13.8508105,65.1388737 17.5512316,65.1388737 C21.2507053,65.1388737 24.2500737,68.1382421 24.2500737,71.8377158" id="Fill-24" fill="#CC1457" sketch:type="MSShapeGroup"></path>
                    <path d="M70.6711263,71.8377158 C70.6711263,75.5371895 67.6717579,78.5365579 63.9722842,78.5365579 C60.2718632,78.5365579 57.2724947,75.5371895 57.2724947,71.8377158 C57.2724947,68.1382421 60.2718632,65.1388737 63.9722842,65.1388737 C67.6717579,65.1388737 70.6711263,68.1382421 70.6711263,71.8377158" id="Fill-26" fill="#CC1457" sketch:type="MSShapeGroup"></path>
                    <path d="M50.8894105,51.8788421 C50.8894105,51.8788421 53.6244632,50.5667368 56.8729895,50.1423158 C60.2001474,49.7084211 63.1019368,50.2853684 63.1019368,50.2853684" id="Stroke-28" stroke="#1F2338" stroke-linecap="round" stroke-linejoin="round" sketch:type="MSShapeGroup"></path>
                    <path d="M29.9437579,51.8788421 C29.9437579,51.8788421 27.2087053,50.5667368 23.9601789,50.1423158 C20.6330211,49.7084211 17.7312316,50.2853684 17.7312316,50.2853684" id="Stroke-30" stroke="#1F2338" stroke-linecap="round" stroke-linejoin="round" sketch:type="MSShapeGroup"></path>
                    <path d="M53.6184947,77.1386211 C53.6184947,79.9807263 47.6822842,84.6389368 40.3600737,84.6389368 C33.0378632,84.6389368 27.1016526,79.9807263 27.1016526,77.1386211 C27.1016526,75.2438842 53.6184947,75.2438842 53.6184947,77.1386211" id="Fill-32" fill="#1F2338" sketch:type="MSShapeGroup"></path>
                    <path d="M30.8067158,38.0260421 C30.8067158,38.0260421 31.6385053,38.3263579 33.0567158,38.9052 C34.4758737,39.4821474 36.4909263,40.3129895 38.8792421,41.3314105 C41.2827158,42.3214105 44.0585053,43.5008842 47.0427158,44.6794105 C50.0231368,45.8636211 53.2167158,47.0459368 56.4292421,47.9847789 C58.0312421,48.4632 59.6446105,48.8516211 61.2200842,49.1292 C62.7965053,49.3906737 64.3397684,49.5365684 65.7560842,49.4361474 L66.2828211,49.3935158 C66.3084,49.3935158 66.4116632,49.3793053 66.3728211,49.3916211 L66.5215579,49.3679368 L66.8190316,49.3205684 C67.2150316,49.2570947 67.6205053,49.1993053 67.9378737,49.1301474 C68.6095579,49.0126737 69.3077684,48.8260421 69.9264,48.6185684 C70.5592421,48.4158316 71.1333474,48.1572 71.6364,47.8606737 C72.1555579,47.5755158 72.5828211,47.2278316 72.9229263,46.8403579 C73.6069263,46.0701474 73.9299789,45.0990947 73.9754526,44.1488842 C74.0218737,43.2024632 73.8665053,42.3138316 73.6789263,41.6014105 C73.4818737,40.8889895 73.2838737,40.3224632 73.1228211,39.9482526 C72.9655579,39.5712 72.8689263,39.3713053 72.8689263,39.3713053 C72.8689263,39.3713053 73.0337684,39.5190947 73.3075579,39.8326737 C73.5756632,40.1490947 73.9773474,40.6208842 74.3742947,41.3067789 C74.7693474,41.9898316 75.2288211,42.8756211 75.4249263,44.0465684 C75.5234526,44.6282526 75.5689263,45.2809895 75.4741895,45.9820421 C75.3756632,46.6812 75.1122947,47.4087789 74.7087158,48.0880421 C73.9025053,49.4655158 72.5269263,50.5332 71.0395579,51.2503579 C70.2864,51.6264632 69.5209263,51.9154105 68.6720842,52.1759368 C68.2362947,52.3227789 67.8630316,52.4118316 67.4755579,52.5084632 L67.1837684,52.5823579 L67.0369263,52.6193053 L66.8275579,52.6572 L66.1492421,52.7765684 C64.3284,53.0569895 62.4829263,53.0039368 60.6800842,52.7661474 C58.8725053,52.5387789 57.1009263,52.1162526 55.3700842,51.6217263 C51.9159789,50.6004632 48.6361895,49.2173053 45.6756632,47.7375158 C42.7132421,46.2605684 40.0634526,44.6936211 37.8636632,43.2432 C35.6525053,41.8145684 33.8932421,40.4986737 32.6815579,39.5541474 C31.4708211,38.6077263 30.8067158,38.0260421 30.8067158,38.0260421" id="Fill-34" fill="#1F2338" sketch:type="MSShapeGroup"></path>
                </g>
            </g>
        </g>
    </g>
</svg>