<?xml version="1.0" encoding="UTF-8" standalone="no"?>
<svg width="84px" height="95px" viewBox="0 0 84 95" version="1.1" xmlns="http://www.w3.org/2000/svg" xmlns:xlink="http://www.w3.org/1999/xlink" xmlns:sketch="http://www.bohemiancoding.com/sketch/ns">
    <!-- Generator: Sketch 3.4.3 (16618) - http://www.bohemiancoding.com/sketch -->
    <title>直登</title>
    <desc>Created with Sketch.</desc>
    <defs>
        <path id="path-1" d="M0,0.350759259 L83.9289444,0.350759259 L83.9289444,94 L0,94"></path>
        <path id="path-3" d="M0,0.350759259 L83.9289444,0.350759259 L83.9289444,94 L0,94"></path>
    </defs>
    <g id="Page-1" stroke="none" stroke-width="1" fill="none" fill-rule="evenodd" sketch:type="MSPage">
        <g id="Desktop" sketch:type="MSArtboardGroup" transform="translate(-470.000000, -925.000000)">
            <g id="Group" sketch:type="MSLayerGroup" transform="translate(292.000000, 923.000000)">
                <g id="直登" transform="translate(178.000000, 2.000000)">
                    <path d="M77.7213759,47.0440407 C77.7213759,71.5353926 87.5269685,91.3885407 42.0805796,91.3885407 C-2.26479074,91.3885407 6.43891296,71.5353926 6.43891296,47.0440407 C6.43891296,22.5526889 17.5892278,2.69954074 42.0805796,2.69954074 C66.5710611,2.69954074 77.7213759,22.5526889 77.7213759,47.0440407" id="Fill-1" fill="#000000" sketch:type="MSShapeGroup"></path>
                    <path d="M77.7213759,48.7847815 C77.7213759,73.2761333 87.5269685,93.1292815 42.0805796,93.1292815 C-2.26479074,93.1292815 6.43891296,73.2761333 6.43891296,48.7847815 C6.43891296,24.2934296 17.5892278,4.44028148 42.0805796,4.44028148 C66.5710611,4.44028148 77.7213759,24.2934296 77.7213759,48.7847815" id="Fill-3" fill="#FFFFFF" sketch:type="MSShapeGroup"></path>
                    <path d="M77.7213759,48.7847815 C77.7213759,73.2761333 87.5269685,93.1292815 42.0805796,93.1292815 C-2.26479074,93.1292815 6.43891296,73.2761333 6.43891296,48.7847815 C6.43891296,24.2934296 17.5892278,4.44028148 42.0805796,4.44028148 C66.5710611,4.44028148 77.7213759,24.2934296 77.7213759,48.7847815 L77.7213759,48.7847815 Z" id="Stroke-5" stroke="#1F2338" stroke-width="2" sketch:type="MSShapeGroup"></path>
                    <path d="M22.3206481,13.7159056 L23.1553333,13.1475537" id="Stroke-7" stroke="#000000" stroke-width="2" sketch:type="MSShapeGroup"></path>
                    <path d="M30.5230185,63.4708889 C30.5230185,65.7138333 28.3148889,67.5329074 25.5906296,67.5329074 C22.8672407,67.5329074 20.6591111,65.7138333 20.6591111,63.4708889 C20.6591111,61.2279444 22.8672407,59.4088704 25.5906296,59.4088704 C28.3148889,59.4088704 30.5230185,61.2279444 30.5230185,63.4708889" id="Fill-9" fill="#1F2338" sketch:type="MSShapeGroup"></path>
                    <path d="M61.8564389,63.4708889 C61.8564389,65.7138333 59.6483093,67.5329074 56.92405,67.5329074 C54.2006611,67.5329074 51.9925315,65.7138333 51.9925315,63.4708889 C51.9925315,61.2279444 54.2006611,59.4088704 56.92405,59.4088704 C59.6483093,59.4088704 61.8564389,61.2279444 61.8564389,63.4708889" id="Fill-11" fill="#1F2338" sketch:type="MSShapeGroup"></path>
                    <path d="M20.9489444,76.8786833 C20.9489444,80.2774796 18.1933519,83.0330722 14.7945556,83.0330722 C11.3948889,83.0330722 8.6392963,80.2774796 8.6392963,76.8786833 C8.6392963,73.479887 11.3948889,70.7242944 14.7945556,70.7242944 C18.1933519,70.7242944 20.9489444,73.479887 20.9489444,76.8786833" id="Fill-13" fill="#CC1457" sketch:type="MSShapeGroup"></path>
                    <path d="M74.0416241,76.8786833 C74.0416241,80.2774796 71.2860315,83.0330722 67.8872352,83.0330722 C64.4875685,83.0330722 61.7319759,80.2774796 61.7319759,76.8786833 C61.7319759,73.479887 64.4875685,70.7242944 67.8872352,70.7242944 C71.2860315,70.7242944 74.0416241,73.479887 74.0416241,76.8786833" id="Fill-15" fill="#CC1457" sketch:type="MSShapeGroup"></path>
                    <path d="M17.4054926,53.6067204 L31.9737519,52.26635" id="Stroke-17" stroke="#1F2338" stroke-width="2" stroke-linecap="round" stroke-linejoin="round" sketch:type="MSShapeGroup"></path>
                    <path d="M65.9181093,53.6067204 L51.34985,52.26635" id="Stroke-19" stroke="#1F2338" stroke-width="2" stroke-linecap="round" stroke-linejoin="round" sketch:type="MSShapeGroup"></path>
                    <path d="M42.0802315,4.43993333 C17.5888796,4.43993333 6.43943519,24.2939519 6.43943519,48.7844333 C6.43943519,50.1622296 6.41071296,51.5243593 6.36632407,52.8690815 C15.8194167,52.8333963 27.1838426,46.1942111 35.4175463,34.8968037 C38.0399722,31.2978222 40.1088426,27.5413037 41.6276389,23.8013222 C43.1473056,27.5413037 45.2153056,31.2978222 47.8386019,34.8968037 C56.3395093,46.560637 68.1774167,53.2616185 77.803713,52.8542852 C77.7532315,51.5139148 77.7210278,50.1570074 77.7210278,48.7844333 C77.7210278,24.2939519 66.5715833,4.43993333 42.0802315,4.43993333" id="Fill-21" fill="#1F2338" sketch:type="MSShapeGroup"></path>
                    <path d="M49.0189981,29.80035 C51.3507204,39.4475352 58.0604056,48.6221093 55.6059611,50.1191463 C53.5666833,51.3620352 44.0387389,46.2111833 37.7825167,36.8677574 C32.29135,28.6671278 31.757813,18.6892019 36.3542389,16.7378315 C40.9506648,14.7864611 46.6951093,20.1871093 49.0189981,29.80035" id="Fill-23" fill="#1F2338" sketch:type="MSShapeGroup"></path>
                    <path d="M66.1475389,37.012413 C68.4792611,46.6595981 75.1889463,55.8341722 72.7345019,57.3312093 C70.6952241,58.5740981 61.1672796,53.4232463 54.9110574,44.0798204 C49.4198907,35.8791907 48.8863537,25.9012648 53.4827796,23.9498944 C58.0792056,21.9985241 63.82365,27.3991722 66.1475389,37.012413" id="Fill-25" fill="#1F2338" sketch:type="MSShapeGroup"></path>
                    <path d="M22.3383167,34.2456796 C20.0065944,43.8928648 13.2969093,53.0674389 15.7513537,54.5644759 C17.7906315,55.8073648 27.3185759,50.656513 33.5747981,41.313087 C39.0659648,33.1124574 39.5995019,23.1345315 35.0030759,21.1831611 C30.40665,19.2317907 24.6622056,24.6324389 22.3383167,34.2456796" id="Fill-27" fill="#1F2338" sketch:type="MSShapeGroup"></path>
                    <path d="M13.0148222,50.4705148 C9.03200741,59.5058296 7.8543963,70.6944407 5.60100741,70.4681444 C3.72884074,70.2792741 1.04461852,60.6660333 2.57995185,49.6044963 C3.92641481,39.8955148 9.13645185,31.6374407 12.8860074,32.7402 C16.6346926,33.8429593 16.9837111,41.4674037 13.0148222,50.4705148" id="Fill-29" fill="#1F2338" sketch:type="MSShapeGroup"></path>
                    <path d="M70.6416093,47.766013 C74.6244241,56.8013278 75.8029056,67.9899389 78.0554241,67.7636426 C79.9275907,67.5747722 82.611813,57.9615315 81.0764796,46.8999944 C79.7300167,37.191013 74.5199796,28.9329389 70.7704241,30.0356981 C67.0217389,31.1384574 66.6727204,38.7629019 70.6416093,47.766013" id="Fill-31" fill="#1F2338" sketch:type="MSShapeGroup"></path>
                    <g id="Group-35">
                        <mask id="mask-2" sketch:name="Clip 34" fill="white">
                            <use xlink:href="#path-1"></use>
                        </mask>
                        <g id="Clip-34"></g>
                        <path d="M27.1297056,14.7316278 C17.9742796,18.4280907 9.32453889,25.624313 7.86840926,23.8896648 C6.65859444,22.4492019 11.4404093,13.6880537 20.2563907,6.8321463 C27.9939833,0.814405556 37.487113,-1.46857593 39.4045389,1.93631296 C41.3210944,5.34207222 36.2529278,11.0482204 27.1297056,14.7316278" id="Fill-33" fill="#1F2338" sketch:type="MSShapeGroup" mask="url(#mask-2)"></path>
                    </g>
                    <path d="M51.2967574,10.0164833 C59.1901463,10.2967426 67.6571093,13.3473907 68.2794241,11.6458167 C68.7955537,10.2323352 62.8091463,4.95005741 54.3091093,2.20055741 C46.8482944,-0.212109259 39.0872019,0.661742593 38.5754241,3.74546481 C38.0627759,6.82918704 43.4312204,9.73709444 51.2967574,10.0164833" id="Fill-36" fill="#1F2338" sketch:type="MSShapeGroup"></path>
                    <g id="Group-40">
                        <mask id="mask-4" sketch:name="Clip 39" fill="white">
                            <use xlink:href="#path-3"></use>
                        </mask>
                        <g id="Clip-39"></g>
                        <path d="M12.8376148,34.1764852 C6.81117037,42.1804111 2.31918889,52.6353 0.608040741,52.0948 C-0.813274074,51.6448185 0.121503704,42.1290593 4.85544815,31.8465037 C9.0105963,22.8216333 15.7603185,15.7324667 18.3766519,17.321763 C20.9921148,18.9101889 18.8423,26.2004111 12.8376148,34.1764852" id="Fill-38" fill="#1F2338" sketch:type="MSShapeGroup" mask="url(#mask-4)"></path>
                    </g>
                    <path d="M70.8209926,29.0337278 C76.9849556,36.9323389 81.6571037,47.3080241 83.3586778,46.7379315 C84.7721593,46.2635796 83.6728815,36.7652278 78.7613815,26.5662278 C74.4513074,17.6144685 67.5797333,10.6436722 64.9912519,12.2773574 C62.4036407,13.9110426 64.6796593,21.1629685 70.8209926,29.0337278" id="Fill-41" fill="#1F2338" sketch:type="MSShapeGroup"></path>
                    <path d="M54.1009167,79.1376426 C54.1009167,81.7487537 48.5784167,84.0674204 41.7660278,84.0674204 C34.9527685,84.0674204 29.4302685,81.7487537 29.4302685,79.1376426 C29.4302685,78.2672722 54.1009167,78.2672722 54.1009167,79.1376426" id="Fill-43" fill="#1F2338" sketch:type="MSShapeGroup"></path>
                </g>
            </g>
        </g>
    </g>
</svg>