<?xml version="1.0" encoding="UTF-8" standalone="no"?>
<svg width="93px" height="91px" viewBox="0 0 93 91" version="1.1" xmlns="http://www.w3.org/2000/svg" xmlns:xlink="http://www.w3.org/1999/xlink" xmlns:sketch="http://www.bohemiancoding.com/sketch/ns">
    <!-- Generator: Sketch 3.4.3 (16618) - http://www.bohemiancoding.com/sketch -->
    <title>前田</title>
    <desc>Created with Sketch.</desc>
    <defs>
        <path id="path-1" d="M0,0.5540625 L91.22625,0.5540625 L91.22625,90 L0,90"></path>
    </defs>
    <g id="Page-1" stroke="none" stroke-width="1" fill="none" fill-rule="evenodd" sketch:type="MSPage">
        <g id="Desktop" sketch:type="MSArtboardGroup" transform="translate(-295.000000, -1135.000000)">
            <g id="Group" sketch:type="MSLayerGroup" transform="translate(292.000000, 923.000000)">
                <g id="前田" transform="translate(4.000000, 212.000000)">
                    <path d="M87.7995,46.0756875 C93.2698125,69.0163125 91.5495,89.062875 45.5304375,89.062875 C-0.4895625,89.062875 -2.524875,69.030375 3.2604375,46.0756875 C8.9229375,23.610375 24.283875,3.0885 45.5304375,3.0885 C66.7760625,3.0885 82.3423125,23.1885 87.7995,46.0756875" id="Fill-1" fill="#FFFFFF" sketch:type="MSShapeGroup"></path>
                    <path d="M87.7995,46.0756875 C93.2698125,69.0163125 91.5495,89.062875 45.5304375,89.062875 C-0.4895625,89.062875 -2.524875,69.030375 3.2604375,46.0756875 C8.9229375,23.610375 24.283875,3.0885 45.5304375,3.0885 C66.7760625,3.0885 82.3423125,23.1885 87.7995,46.0756875 L87.7995,46.0756875 Z" id="Stroke-3" stroke="#1F2338" stroke-width="2" sketch:type="MSShapeGroup"></path>
                    <g id="Group-7">
                        <mask id="mask-2" sketch:name="Clip 6" fill="white">
                            <use xlink:href="#path-1"></use>
                        </mask>
                        <g id="Clip-6"></g>
                        <path d="M89.2317188,42.2085937 C84.0454688,20.4567187 65.6864063,0.55359375 45.4945313,0.55359375 C14.8973438,0.55359375 5.99578125,25.3926562 1.75734375,42.2085937 C0.68109375,46.4779687 0.02953125,50.6404687 0.00046875,54.5751562 C8.98359375,55.3260937 18.3060938,42.2085937 18.3060938,42.2085937 C18.3060938,42.2085937 25.9251563,28.5857812 27.6951563,23.0329687 C31.9982813,30.2301562 36.8235938,39.8807812 45.4373438,45.0239062 C61.4207813,54.5667187 81.0932813,50.7342187 90.3079688,47.6657812 C90.0342188,45.8732812 89.6714063,44.0507812 89.2317188,42.2085937" id="Fill-5" fill="#1F2338" sketch:type="MSShapeGroup" mask="url(#mask-2)"></path>
                    </g>
                    <path d="M26.865375,5.199 C26.865375,5.199 26.8635,5.399625 26.8588125,5.774625 C26.8606875,6.145875 26.8625625,6.6905625 26.865375,7.3824375 C26.886,8.759625 26.9394375,10.7049375 27.141,12.9924375 C27.231,14.1343125 27.3613125,15.3624375 27.540375,16.645875 C27.6988125,17.9311875 27.9556875,19.26525 28.2163125,20.634 C28.522875,21.9943125 28.836,23.392125 29.2625625,24.775875 C29.6675625,26.1661875 30.15975,27.5461875 30.7025625,28.90275 C31.2613125,30.25275 31.8669375,31.5830625 32.5513125,32.8486875 C32.886,33.4861875 33.232875,34.1105625 33.604125,34.713375 C33.951,35.332125 34.342875,35.9115 34.7244375,36.4880625 C35.085375,37.079625 35.5006875,37.6186875 35.8925625,38.1624375 C36.0885,38.43525 36.2825625,38.70525 36.4738125,38.9715 C36.681,39.2274375 36.885375,39.479625 37.0869375,39.7280625 C37.864125,40.7565 38.7031875,41.6480625 39.4438125,42.520875 C40.245375,43.327125 40.927875,44.1511875 41.621625,44.7868125 C42.304125,45.434625 42.859125,46.075875 43.3794375,46.52025 C44.3900625,47.4530625 44.9563125,48.0436875 44.9563125,48.0436875 C44.9563125,48.0436875 44.19225,47.812125 42.8750625,47.3049375 C42.2056875,47.0686875 41.4463125,46.68525 40.5585,46.254 C39.6556875,45.8424375 38.736,45.220875 37.6831875,44.5899375 C36.6913125,43.8830625 35.5888125,43.1265 34.5435,42.1749375 C34.27725,41.9415 34.00725,41.7043125 33.7335,41.46525 C33.4775625,41.2074375 33.217875,40.9468125 32.955375,40.6824375 C32.4181875,40.1630625 31.9035,39.599625 31.410375,38.9986875 C30.89475,38.4136875 30.4044375,37.792125 29.947875,37.1311875 C29.7135,36.8049375 29.4781875,36.4768125 29.2419375,36.145875 C29.029125,35.7999375 28.8163125,35.4511875 28.601625,35.1015 C27.7250625,33.712125 27.019125,32.1943125 26.3600625,30.663375 C25.76475,29.1080625 25.222875,27.5293125 24.87225,25.9336875 C24.47475,24.3493125 24.266625,22.7555625 24.112875,21.220875 C23.996625,19.6815 23.951625,18.1936875 24.0285,16.7911875 C24.090375,15.3886875 24.2385,14.0724375 24.4400625,12.8715 C24.6256875,11.6686875 24.9069375,10.585875 25.159125,9.6361875 C25.414125,8.6865 25.701,7.8765 25.95225,7.2174375 C26.4538125,5.898375 26.865375,5.199 26.865375,5.199" id="Fill-8" fill="#1F2338" sketch:type="MSShapeGroup"></path>
                    <path d="M50.8512188,36.9254062 C50.8512188,36.9254062 52.4505938,38.8275937 55.1899688,41.2266562 C56.5596563,42.4247812 58.2246563,43.7307187 60.1080938,44.9579062 C61.0465313,45.5766562 62.0562188,46.1485312 63.0930938,46.6969687 C64.1243437,47.2585312 65.2193438,47.7291562 66.3246563,48.1622812 C67.4299688,48.5972812 68.5587187,48.9704062 69.6930938,49.2516562 C70.8284063,49.5207187 71.9524688,49.7832187 73.0615313,49.9097812 C73.6155938,49.9857187 74.1612188,50.0475937 74.6984063,50.0804062 C75.2355938,50.1207187 75.7624688,50.1779062 76.2771563,50.1704062 C77.3065313,50.2041562 78.2815313,50.1582187 79.1890312,50.1263437 C80.0871563,50.0316562 80.9262188,49.9969687 81.6574688,49.8788437 C82.3868438,49.7541562 83.0430938,49.7100937 83.5643438,49.5882187 C84.6171563,49.3857187 85.2330938,49.2844687 85.2330938,49.2844687 C85.2330938,49.2844687 84.6705938,49.5347812 83.6646563,49.9482187 C83.1649688,50.1685312 82.5312187,50.3457187 81.8074688,50.5810312 C81.0846563,50.8210312 80.2427813,50.9925937 79.3240313,51.1950937 C78.3977813,51.3488437 77.3880938,51.5213437 76.3043438,51.5691562 C75.2243438,51.6404062 74.0730938,51.6619687 72.8899688,51.5522812 C71.7068438,51.4650937 70.4834063,51.2991562 69.2665312,51.0113437 C68.0487188,50.7310312 66.8327813,50.3569687 65.6459063,49.9088437 C64.4730938,49.4260312 63.3162188,48.9029062 62.2334063,48.2879062 C61.1355938,47.6982187 60.1259062,47.0025937 59.1705938,46.3116562 C58.2105938,45.6235312 57.3499688,44.8744687 56.5540313,44.1497812 C55.7618438,43.4204062 55.0530938,42.6910312 54.4343438,41.9869687 C53.1818437,40.5947812 52.2874688,39.3160312 51.7024688,38.4029062 C51.1184062,37.4850937 50.8512188,36.9254062 50.8512188,36.9254062" id="Fill-10" fill="#FFFFFF" sketch:type="MSShapeGroup"></path>
                    <path d="M21.3734063,74.9679375 C21.3734063,79.1210625 18.0068438,82.487625 13.8537188,82.487625 C9.70153125,82.487625 6.33496875,79.1210625 6.33496875,74.9679375 C6.33496875,70.8148125 9.70153125,67.44825 13.8537188,67.44825 C18.0068438,67.44825 21.3734063,70.8148125 21.3734063,74.9679375" id="Fill-12" fill="#CC1457" sketch:type="MSShapeGroup"></path>
                    <path d="M84.11175,74.9679375 C84.11175,79.1210625 80.7451875,82.487625 76.5920625,82.487625 C72.439875,82.487625 69.0733125,79.1210625 69.0733125,74.9679375 C69.0733125,70.8148125 72.439875,67.44825 76.5920625,67.44825 C80.7451875,67.44825 84.11175,70.8148125 84.11175,74.9679375" id="Fill-14" fill="#CC1457" sketch:type="MSShapeGroup"></path>
                    <path d="M32.007,65.676375 C32.007,67.4379375 29.308875,68.8666875 25.9816875,68.8666875 C22.6535625,68.8666875 19.9554375,67.4379375 19.9554375,65.676375 C19.9554375,63.9148125 22.6535625,62.4860625 25.9816875,62.4860625 C29.308875,62.4860625 32.007,63.9148125 32.007,65.676375" id="Fill-16" fill="#1F2338" sketch:type="MSShapeGroup"></path>
                    <path d="M70.2880313,65.676375 C70.2880313,67.4379375 67.5899063,68.8666875 64.2627188,68.8666875 C60.9345938,68.8666875 58.2364688,67.4379375 58.2364688,65.676375 C58.2364688,63.9148125 60.9345938,62.4860625 64.2627188,62.4860625 C67.5899063,62.4860625 70.2880313,63.9148125 70.2880313,65.676375" id="Fill-18" fill="#1F2338" sketch:type="MSShapeGroup"></path>
                    <path d="M20.31,55.39725 C20.31,55.39725 24.2971875,54.334125 26.68875,54.334125 C29.2153125,54.334125 33.0703125,55.39725 33.0703125,55.39725" id="Stroke-20" stroke="#1F2338" stroke-width="2" stroke-linecap="round" stroke-linejoin="round" sketch:type="MSShapeGroup"></path>
                    <path d="M57.5277188,55.39725 C57.5277188,55.39725 61.5149063,54.334125 63.9064688,54.334125 C66.4330313,54.334125 70.2880313,55.39725 70.2880313,55.39725" id="Stroke-22" stroke="#1F2338" stroke-width="2" stroke-linecap="round" stroke-linejoin="round" sketch:type="MSShapeGroup"></path>
                    <path d="M58.059375,78.3662813 C58.059375,81.1787813 52.1109375,83.6762813 44.773125,83.6762813 C37.434375,83.6762813 31.4859375,81.1787813 31.4859375,78.3662813 C31.4859375,77.4287813 58.059375,77.4287813 58.059375,78.3662813" id="Fill-24" fill="#1F2338" sketch:type="MSShapeGroup"></path>
                    <path d="M57.5342812,8.81746875 L62.8480312,12.2449688 C65.8780312,14.2062188 69.6814687,16.5415313 73.5570937,18.2787187 C74.5292812,18.7137187 75.5089687,19.1196563 76.4924062,19.4805937 C77.4749062,19.8405937 78.4527187,20.1893437 79.4286562,20.4696562 C79.9142812,20.6252812 80.3989687,20.7546563 80.8799062,20.8812187 C81.3599062,21.0134062 81.8342812,21.1446563 82.3058437,21.2440312 C83.2442812,21.4849688 84.1592812,21.6527813 85.0264687,21.8440312 C85.8908437,21.9837187 86.7130312,22.1740312 87.4536562,22.2790312 C88.1933437,22.3840312 88.8674062,22.5424687 89.4214687,22.6109063 C90.5370937,22.7852812 91.2261562,22.9474687 91.2261562,22.9474687 C91.2261562,22.9474687 90.7217812,23.3993437 89.7495937,24.0818437 C89.2667812,24.4390312 88.6405312,24.7521562 87.9102187,25.1412187 C87.1799062,25.5274687 86.3127187,25.8359063 85.3480312,26.1790313 C84.8614687,26.3215313 84.3477187,26.4471562 83.8105312,26.5887188 C83.2733437,26.7330937 82.7080312,26.7837187 82.1230312,26.8877813 C80.9539687,27.0434063 79.6939687,27.1193438 78.3945937,27.0405937 C77.7383437,27.0387187 77.0839687,26.9365312 76.4164687,26.8474687 C75.7433437,26.7790313 75.0824062,26.6177813 74.4102187,26.4687188 C73.0724062,26.1462187 71.7495937,25.6830937 70.4792812,25.1168437 C69.2192812,24.5318437 67.9958437,23.8680937 66.8867812,23.0918437 C65.7683437,22.3268437 64.7436562,21.4821562 63.8295937,20.5952812 C61.9958437,18.8271563 60.6027187,16.9127813 59.6445937,15.1530937 C58.6752187,13.3980937 58.1305312,11.8034063 57.8455312,10.6605937 C57.5652187,9.51215625 57.5342812,8.81746875 57.5342812,8.81746875" id="Fill-26" fill="#1F2338" sketch:type="MSShapeGroup"></path>
                    <path d="M48.60225,5.12840625 C48.60225,5.12840625 50.8719375,6.24496875 54.276,7.92028125 C57.5113125,9.51778125 61.5594375,11.3993438 65.6094375,12.6780937 C66.6256875,12.9977813 67.6456875,13.2884062 68.6638125,13.5330938 C69.681,13.7768437 70.6925625,14.0112187 71.69475,14.1762187 C72.195375,14.2746562 72.6913125,14.3477813 73.1835,14.4180938 C73.6756875,14.4940312 74.16225,14.5699687 74.6413125,14.6140312 C75.60225,14.7452812 76.530375,14.8062187 77.4135,14.8962187 C78.2881875,14.9355937 79.12725,15.0293437 79.875375,15.0480937 C80.621625,15.0677812 81.30975,15.1465312 81.8685,15.1512187 C82.9963125,15.1952812 83.6994375,15.2768438 83.6994375,15.2768438 C83.6994375,15.2768438 83.250375,15.7840312 82.3635,16.5743438 C81.92475,16.9849688 81.3388125,17.3674687 80.659125,17.8380937 C79.9775625,18.3059062 79.151625,18.7127812 78.232875,19.1646562 C77.766,19.3634062 77.2700625,19.5471562 76.7525625,19.7496563 C76.236,19.9549687 75.6800625,20.0702813 75.111,20.2409063 C73.9681875,20.5305938 72.7250625,20.7509062 71.4256875,20.8230937 C70.7731875,20.8971563 70.11225,20.8709062 69.4381875,20.8596563 C68.76225,20.8690313 68.08725,20.7846562 67.4019375,20.7152813 C66.036,20.5484062 64.669125,20.2409063 63.341625,19.8255938 C62.021625,19.3896563 60.7306875,18.8712188 59.539125,18.2280937 C58.3400625,17.5980937 57.2244375,16.8771562 56.21475,16.1018437 C54.1888125,14.5559062 52.5838125,12.8159062 51.42975,11.1780937 C50.2644375,9.54684375 49.53975,8.02528125 49.1244375,6.92371875 C48.712875,5.81465625 48.60225,5.12840625 48.60225,5.12840625" id="Fill-28" fill="#1F2338" sketch:type="MSShapeGroup"></path>
                    <path d="M54.5980313,5.87334375 C54.5980313,5.87334375 54.6992813,5.91178125 54.8905313,5.98303125 C55.0667813,6.06178125 55.3499063,6.14521875 55.6695938,6.28490625 C55.9845938,6.42459375 56.4017813,6.55678125 56.8208438,6.74334375 C57.2417813,6.91396875 57.7170938,7.10709375 58.2355313,7.31803125 C58.7277188,7.51959375 59.2611562,7.73709375 59.8245938,7.96771875 C60.3617813,8.21521875 60.9533438,8.40178125 61.5158438,8.65303125 C62.0830313,8.86584375 62.6699063,9.08615625 63.2661563,9.30928125 C63.8661563,9.48459375 64.4361562,9.75928125 65.0417813,9.89334375 L65.9230313,10.1877188 C66.2239688,10.2411563 66.5164688,10.3339687 66.8108438,10.4117812 C67.3967813,10.6039688 67.9883437,10.6883437 68.5695938,10.8364687 C69.1499063,11.0174062 69.7292813,11.0436562 70.2945938,11.1702188 C70.8627187,11.3164687 71.4130313,11.3605312 71.9399063,11.4289688 C72.4649063,11.4899062 72.9814688,11.6305313 73.4324062,11.6539687 C73.8842813,11.6877187 74.3033438,11.7552187 74.6530313,11.8002188 C74.9989688,11.8358437 75.2952188,11.9099063 75.4911563,11.9389687 C75.6945938,11.9820938 75.8033437,12.0045938 75.8033437,12.0045938 C75.8033437,12.0045938 75.7395938,12.0927187 75.6092813,12.2399062 C75.4752188,12.3795937 75.2886563,12.6158437 75.0186563,12.8577188 C74.7524063,13.1080312 74.4242813,13.4258437 74.0192813,13.7474063 C73.6208438,14.0886563 73.1089688,14.3230313 72.5502187,14.6314687 C72.2689687,14.7786562 71.9680313,14.9145938 71.6539688,15.0645938 C71.3408438,15.2192812 70.9949063,15.2764688 70.6452187,15.3908438 C69.9374063,15.5633437 69.1752187,15.8108438 68.3670938,15.8211563 C67.5627188,15.8661563 66.7086563,15.9402187 65.8686563,15.7864687 C65.4458438,15.7292813 65.0145938,15.6852187 64.5899062,15.6027187 C64.1727188,15.4977188 63.7583438,15.3739687 63.3430313,15.2539688 C62.5086563,15.0130312 61.7370938,14.6399062 60.9870938,14.2583438 C60.6008438,14.0895937 60.2699063,13.8345938 59.9267813,13.6133437 C59.5911563,13.3817812 59.2433438,13.1774062 58.9480313,12.9130312 C58.3461563,12.4049062 57.7761563,11.9070937 57.3149063,11.3577187 C56.8330313,10.8327188 56.4383438,10.2824063 56.1008438,9.76209375 C55.4305313,8.71490625 55.0377188,7.74084375 54.8370938,7.02459375 C54.6205313,6.31959375 54.5980313,5.87334375 54.5980313,5.87334375" id="Fill-30" fill="#1F2338" sketch:type="MSShapeGroup"></path>
                </g>
            </g>
        </g>
    </g>
</svg>