<?xml version="1.0" encoding="UTF-8" standalone="no"?>
<svg width="85px" height="91px" viewBox="0 0 85 91" version="1.1" xmlns="http://www.w3.org/2000/svg" xmlns:xlink="http://www.w3.org/1999/xlink" xmlns:sketch="http://www.bohemiancoding.com/sketch/ns">
    <!-- Generator: Sketch 3.4.3 (16618) - http://www.bohemiancoding.com/sketch -->
    <title>小野</title>
    <desc>Created with Sketch.</desc>
    <defs>
        <path id="path-1" d="M0,0.0936 L84.6,0.0936 L84.6,90 L0,90"></path>
    </defs>
    <g id="Page-1" stroke="none" stroke-width="1" fill="none" fill-rule="evenodd" sketch:type="MSPage">
        <g id="Desktop" sketch:type="MSArtboardGroup" transform="translate(-470.000000, -1346.000000)">
            <g id="Group" sketch:type="MSLayerGroup" transform="translate(292.000000, 923.000000)">
                <g id="小野" transform="translate(178.000000, 423.000000)">
                    <g id="Group-3">
                        <mask id="mask-2" sketch:name="Clip 2" fill="white">
                            <use xlink:href="#path-1"></use>
                        </mask>
                        <g id="Clip-2"></g>
                        <path d="M80.81244,46.25811 C90.97164,88.17831 81.54054,88.64991 42.19254,88.64991 C4.67784,88.64991 -6.63966,88.17831 3.57354,46.25811 C9.85464,20.47491 15.65514,0.09351 42.19254,0.09351 C68.73084,0.09351 74.56194,20.46681 80.81244,46.25811" id="Fill-1" fill="#1F2338" sketch:type="MSShapeGroup" mask="url(#mask-2)"></path>
                    </g>
                    <path d="M73.3455,50.3658 C73.3455,71.7579 77.2722,89.1 42.2136,89.1 C7.9722,89.1 11.0817,71.7579 11.0817,50.3658 C11.0817,28.9737 20.8215,11.6316 42.2136,11.6316 C63.6057,11.6316 73.3455,28.9737 73.3455,50.3658" id="Fill-4" fill="#FFFFFF" sketch:type="MSShapeGroup"></path>
                    <path d="M73.3455,50.3658 C73.3455,71.7579 77.2722,89.1 42.2136,89.1 C7.9722,89.1 11.0817,71.7579 11.0817,50.3658 C11.0817,28.9737 20.8215,11.6316 42.2136,11.6316 C63.6057,11.6316 73.3455,28.9737 73.3455,50.3658 L73.3455,50.3658 Z" id="Stroke-6" stroke="#1F2338" stroke-width="2" sketch:type="MSShapeGroup"></path>
                    <path d="M31.09194,61.12998 C30.87324,62.60508 28.43694,63.46548 25.65054,63.05238 C22.86504,62.63928 20.78334,61.10838 21.00204,59.63328 C21.22074,58.15818 23.65704,57.29778 26.44344,57.71088 C29.22984,58.12398 31.31064,59.65488 31.09194,61.12998" id="Fill-8" fill="#1F2338" sketch:type="MSShapeGroup"></path>
                    <path d="M63.49365,59.64444 C63.70965,61.11954 61.62435,62.64594 58.83795,63.05364 C56.05065,63.46044 53.61615,62.59464 53.40105,61.11864 C53.18505,59.64354 55.26945,58.11714 58.05675,57.71034 C60.84405,57.30264 63.27765,58.16934 63.49365,59.64444" id="Fill-10" fill="#1F2338" sketch:type="MSShapeGroup"></path>
                    <path d="M26.6472,72.74583 C26.6472,76.26033 23.7978,79.10973 20.2833,79.10973 C16.7679,79.10973 13.9185,76.26033 13.9185,72.74583 C13.9185,69.23133 16.7679,66.38193 20.2833,66.38193 C23.7978,66.38193 26.6472,69.23133 26.6472,72.74583" id="Fill-12" fill="#CC1457" sketch:type="MSShapeGroup"></path>
                    <path d="M70.7472,72.74583 C70.7472,76.26033 67.8978,79.10973 64.3833,79.10973 C60.8679,79.10973 58.0185,76.26033 58.0185,72.74583 C58.0185,69.23133 60.8679,66.38193 64.3833,66.38193 C67.8978,66.38193 70.7472,69.23133 70.7472,72.74583" id="Fill-14" fill="#CC1457" sketch:type="MSShapeGroup"></path>
                    <path d="M37.77336,62.42391 C37.14966,67.57191 31.69836,67.96611 25.59726,67.22721 C19.49616,66.48831 15.05646,64.89531 15.68016,59.74731 C16.30386,54.59931 21.25296,55.16811 27.35406,55.90701 C33.45516,56.64681 38.39706,57.27591 37.77336,62.42391 L37.77336,62.42391 Z" id="Stroke-16" stroke="#1F2338" stroke-width="2" stroke-linecap="round" stroke-linejoin="round" sketch:type="MSShapeGroup"></path>
                    <path d="M46.31616,62.42391 C46.93986,67.57191 52.39116,67.96611 58.49226,67.22721 C64.59336,66.48831 69.03306,64.89531 68.40936,59.74731 C67.78566,54.59931 62.83656,55.16811 56.73546,55.90701 C50.63436,56.64681 45.69246,57.27591 46.31616,62.42391 L46.31616,62.42391 Z" id="Stroke-18" stroke="#1F2338" stroke-width="2" stroke-linecap="round" stroke-linejoin="round" sketch:type="MSShapeGroup"></path>
                    <path d="M38.3472,62.48169 L45.5472,62.48169" id="Stroke-20" stroke="#1F2338" stroke-width="2" stroke-linecap="round" stroke-linejoin="round" sketch:type="MSShapeGroup"></path>
                    <path d="M68.35815,58.70358 L74.34675,56.31048" id="Stroke-22" stroke="#1F2338" stroke-width="2" stroke-linecap="round" stroke-linejoin="round" sketch:type="MSShapeGroup"></path>
                    <path d="M15.53625,58.70358 L9.54765,56.31048" id="Stroke-24" stroke="#1F2338" stroke-width="2" stroke-linecap="round" stroke-linejoin="round" sketch:type="MSShapeGroup"></path>
                    <path d="M73.2861,34.12134 C77.3667,48.10014 63.5292,48.08124 42.3,48.08124 C20.7765,48.08124 7.1622,47.16324 11.3139,33.22134 C18.5058,9.07254 29.6037,9.60984 42.3,9.60984 C56.088,9.60984 66.5559,11.06514 73.2861,34.12134" id="Fill-26" fill="#1F2338" sketch:type="MSShapeGroup"></path>
                    <path d="M41.0472,77.78169 L42.8472,77.78169" id="Stroke-28" stroke="#1F2338" stroke-width="2" stroke-linecap="round" stroke-linejoin="round" sketch:type="MSShapeGroup"></path>
                    <path d="M19.92825,51.51933 L29.57265,53.48133" id="Stroke-30" stroke="#1F2338" stroke-width="2" stroke-linecap="round" stroke-linejoin="round" sketch:type="MSShapeGroup"></path>
                    <path d="M63.7722,51.51933 L54.1278,53.48133" id="Stroke-32" stroke="#1F2338" stroke-width="2" stroke-linecap="round" stroke-linejoin="round" sketch:type="MSShapeGroup"></path>
                    <path d="M61.94844,50.24277 L58.82184,34.28127 L64.54584,49.50567 L61.94844,50.24277 Z" id="Fill-34" fill="#FFFFFF" sketch:type="MSShapeGroup"></path>
                    <path d="M67.34844,51.14277 L64.22184,35.18127 L69.94584,50.40567 L67.34844,51.14277 Z" id="Fill-36" fill="#FFFFFF" sketch:type="MSShapeGroup"></path>
                </g>
            </g>
        </g>
    </g>
</svg>