<?xml version="1.0" encoding="UTF-8" standalone="no"?>
<svg width="80px" height="96px" viewBox="0 0 80 96" version="1.1" xmlns="http://www.w3.org/2000/svg" xmlns:xlink="http://www.w3.org/1999/xlink" xmlns:sketch="http://www.bohemiancoding.com/sketch/ns">
    <!-- Generator: Sketch 3.4.3 (16618) - http://www.bohemiancoding.com/sketch -->
    <title>奥村</title>
    <desc>Created with Sketch.</desc>
    <defs></defs>
    <g id="Page-1" stroke="none" stroke-width="1" fill="none" fill-rule="evenodd" sketch:type="MSPage">
        <g id="Desktop" sketch:type="MSArtboardGroup" transform="translate(-303.000000, -1346.000000)">
            <g id="Group" sketch:type="MSLayerGroup" transform="translate(292.000000, 923.000000)">
                <g id="奥村" transform="translate(12.000000, 423.000000)" sketch:type="MSShapeGroup">
                    <path d="M76.2410035,47.1041052 C76.2410035,73.0474767 86.6279406,94.0776592 38.48717,94.0776592 C-8.4873059,94.0776592 0.732414596,73.0474767 0.732414596,47.1041052 C0.732414596,21.1607337 12.5437985,0.130551242 38.48717,0.130551242 C64.4296196,0.130551242 76.2410035,21.1607337 76.2410035,47.1041052" id="Fill-1" fill="#000000"></path>
                    <path d="M76.2410035,48.0260773 C76.2410035,73.9694488 86.6279406,94.9996312 38.48717,94.9996312 C-8.4873059,94.9996312 0.732414596,73.9694488 0.732414596,48.0260773 C0.732414596,22.0827057 12.5437985,1.05252329 38.48717,1.05252329 C64.4296196,1.05252329 76.2410035,22.0827057 76.2410035,48.0260773" id="Fill-3" fill="#FFFFFF"></path>
                    <path d="M76.2410035,48.0260773 C76.2410035,73.9694488 86.6279406,94.9996312 38.48717,94.9996312 C-8.4873059,94.9996312 0.732414596,73.9694488 0.732414596,48.0260773 C0.732414596,22.0827057 12.5437985,1.05252329 38.48717,1.05252329 C64.4296196,1.05252329 76.2410035,22.0827057 76.2410035,48.0260773 L76.2410035,48.0260773 Z" id="Stroke-5" stroke="#1F2338" stroke-width="2"></path>
                    <path d="M28.0883395,63.5828804 C28.0883395,65.9588024 25.7492964,67.885724 22.8635239,67.885724 C19.9786733,67.885724 17.6396302,65.9588024 17.6396302,63.5828804 C17.6396302,61.2069585 19.9786733,59.2800369 22.8635239,59.2800369 C25.7492964,59.2800369 28.0883395,61.2069585 28.0883395,63.5828804" id="Fill-7" fill="#1F2338"></path>
                    <path d="M58.5134171,63.5828804 C58.5134171,65.9588024 56.174374,67.885724 53.2886015,67.885724 C50.403751,67.885724 48.0647079,65.9588024 48.0647079,63.5828804 C48.0647079,61.2069585 50.403751,59.2800369 53.2886015,59.2800369 C56.174374,59.2800369 58.5134171,61.2069585 58.5134171,63.5828804" id="Fill-9" fill="#1F2338"></path>
                    <path d="M16.1027028,77.7855833 C16.1027028,81.3858841 13.1837393,84.3048476 9.58343847,84.3048476 C5.98221564,84.3048476 3.06325214,81.3858841 3.06325214,77.7855833 C3.06325214,74.1852824 5.98221564,71.2663189 9.58343847,71.2663189 C13.1837393,71.2663189 16.1027028,74.1852824 16.1027028,77.7855833" id="Fill-11" fill="#CC1457"></path>
                    <path d="M72.3429979,77.7855833 C72.3429979,81.3858841 69.4240344,84.3048476 65.8237335,84.3048476 C62.2225107,84.3048476 59.3035472,81.3858841 59.3035472,77.7855833 C59.3035472,74.1852824 62.2225107,71.2663189 65.8237335,71.2663189 C69.4240344,71.2663189 72.3429979,74.1852824 72.3429979,77.7855833" id="Fill-13" fill="#CC1457"></path>
                    <path d="M36.847074,82.7394313 L37.769046,82.9441091 L38.6910181,82.7394313" id="Stroke-15" stroke="#000000" stroke-width="2" stroke-linecap="round" stroke-linejoin="round"></path>
                    <path d="M38.4868012,1.0521545 C12.5434297,1.0521545 0.73296778,22.0832589 0.73296778,48.0257085 C0.73296778,49.4851902 0.702542702,50.9280765 0.655522127,52.3525233 C10.6690606,52.3147224 22.7072496,36.0621991 31.4291052,24.0950019 C34.207007,20.2826475 36.3985345,16.3034161 38.0073758,12.3417023 C39.617139,16.3034161 41.8077446,20.2826475 44.5865683,24.0950019 C53.5914693,36.4503494 66.1312112,52.7683327 76.328222,52.3368498 C76.2747477,50.9170128 76.2406347,49.4796584 76.2406347,48.0257085 C76.2406347,22.0832589 64.4301727,1.0521545 38.4868012,1.0521545" id="Fill-17" fill="#1F2338"></path>
                    <path d="M54.2108502,21.5618837 C54.2108502,30.5105444 46.9567741,37.7646205 38.0081134,37.7646205 C29.0585307,37.7646205 21.8044546,30.5105444 21.8044546,21.5618837 C21.8044546,12.613223 29.0585307,5.35914693 38.0081134,5.35914693 C46.9567741,5.35914693 54.2108502,12.613223 54.2108502,21.5618837" id="Fill-19" fill="#1F2338"></path>
                    <path d="M19.361413,52.3529843 L29.2412655,54.3628833" id="Stroke-29" stroke="#1F2338" stroke-width="2" stroke-linecap="round" stroke-linejoin="round"></path>
                    <path d="M55.977994,52.3529843 L46.0981415,54.3628833" id="Stroke-31" stroke="#1F2338" stroke-width="2" stroke-linecap="round" stroke-linejoin="round"></path>
                </g>
            </g>
        </g>
    </g>
</svg>