<?xml version="1.0" encoding="UTF-8" standalone="no"?>
<svg width="81px" height="101px" viewBox="0 0 81 101" version="1.1" xmlns="http://www.w3.org/2000/svg" xmlns:xlink="http://www.w3.org/1999/xlink" xmlns:sketch="http://www.bohemiancoding.com/sketch/ns">
    <!-- Generator: Sketch 3.4.3 (16618) - http://www.bohemiancoding.com/sketch -->
    <title>大桃</title>
    <desc>Created with Sketch.</desc>
    <defs>
        <path id="path-1" d="M0,0.522522523 L80.5558559,0.522522523 L80.5558559,100 L0,100"></path>
    </defs>
    <g id="Page-1" stroke="none" stroke-width="1" fill="none" fill-rule="evenodd" sketch:type="MSPage">
        <g id="Desktop" sketch:type="MSArtboardGroup" transform="translate(-644.000000, -1556.000000)">
            <g id="Group" sketch:type="MSLayerGroup" transform="translate(292.000000, 923.000000)">
                <g id="大桃" transform="translate(352.000000, 633.000000)">
                    <g id="Group-3">
                        <mask id="mask-2" sketch:name="Clip 2" fill="white">
                            <use xlink:href="#path-1"></use>
                        </mask>
                        <g id="Clip-2"></g>
                        <path d="M74.4985586,52.2978378 C74.4985586,77.6482883 84.6481081,98.1978378 37.6075676,98.1978378 C-8.29333333,98.1978378 0.715675676,77.6482883 0.715675676,52.2978378 C0.715675676,26.9473874 12.2571171,6.39783784 37.6075676,6.39783784 C62.9571171,6.39783784 74.4985586,26.9473874 74.4985586,52.2978378" id="Fill-1" fill="#000000" sketch:type="MSShapeGroup" mask="url(#mask-2)"></path>
                    </g>
                    <path d="M73.3045946,54.6884685 C73.3045946,79.2154955 83.1244144,99.0992793 37.6109009,99.0992793 C-6.79990991,99.0992793 1.91630631,79.2154955 1.91630631,54.6884685 C1.91630631,30.1614414 13.082973,10.2776577 37.6109009,10.2776577 C62.1379279,10.2776577 73.3045946,30.1614414 73.3045946,54.6884685" id="Fill-4" fill="#FFFFFF" sketch:type="MSShapeGroup"></path>
                    <path d="M73.3045946,54.6884685 C73.3045946,79.2154955 83.1244144,99.0992793 37.6109009,99.0992793 C-6.79990991,99.0992793 1.91630631,79.2154955 1.91630631,54.6884685 C1.91630631,30.1614414 13.082973,10.2776577 37.6109009,10.2776577 C62.1379279,10.2776577 73.3045946,30.1614414 73.3045946,54.6884685 L73.3045946,54.6884685 Z" id="Stroke-6" stroke="#1F2338" stroke-width="2" sketch:type="MSShapeGroup"></path>
                    <path d="M22.3412613,74.406036 C20.0196396,74.406036 18.1367568,72.1204505 18.1367568,69.3006306 C18.1367568,66.4817117 20.0196396,64.1961261 22.3412613,64.1961261 C24.6628829,64.1961261 26.5457658,66.4817117 26.5457658,69.3006306 C26.5457658,72.1204505 24.6628829,74.406036 22.3412613,74.406036" id="Fill-8" fill="#1F2338" sketch:type="MSShapeGroup"></path>
                    <path d="M51.1700901,64.1958559 C53.4917117,64.1958559 55.3745946,66.4814414 55.3745946,69.3012613 C55.3745946,72.1201802 53.4917117,74.4057658 51.1700901,74.4057658 C48.8484685,74.4057658 46.9655856,72.1201802 46.9655856,69.3012613 C46.9655856,66.4814414 48.8484685,64.1958559 51.1700901,64.1958559" id="Fill-10" fill="#1F2338" sketch:type="MSShapeGroup"></path>
                    <path d="M15.7346847,82.2781081 C15.7346847,85.7961261 12.8824324,88.6483784 9.36441441,88.6483784 C5.8454955,88.6483784 2.99324324,85.7961261 2.99324324,82.2781081 C2.99324324,78.7600901 5.8454955,75.9078378 9.36441441,75.9078378 C12.8824324,75.9078378 15.7346847,78.7600901 15.7346847,82.2781081" id="Fill-12" fill="#CC1457" sketch:type="MSShapeGroup"></path>
                    <path d="M70.6896396,82.2781081 C70.6896396,85.7961261 67.8373874,88.6483784 64.3193694,88.6483784 C60.8004505,88.6483784 57.9481982,85.7961261 57.9481982,82.2781081 C57.9481982,78.7600901 60.8004505,75.9078378 64.3193694,75.9078378 C67.8373874,75.9078378 70.6896396,78.7600901 70.6896396,82.2781081" id="Fill-14" fill="#CC1457" sketch:type="MSShapeGroup"></path>
                    <path d="M37.6072072,7.29837838 C12.2567568,7.29837838 0.716216216,27.8488288 0.716216216,53.1983784 C0.716216216,54.6245045 0.686486486,56.0344144 0.640540541,57.4263063 C10.4252252,57.3893694 22.1882883,41.5082883 30.7108108,29.8145946 C33.4252252,26.0893694 35.5666667,22.2010811 37.1387387,18.3299099 C38.7117117,22.2010811 40.8522523,26.0893694 43.5675676,29.8145946 C52.3666667,41.8875676 64.6198198,57.8326126 74.5837838,57.410991 C74.5315315,56.0236036 74.4981982,54.6190991 74.4981982,53.1983784 C74.4981982,27.8488288 62.9576577,7.29837838 37.6072072,7.29837838" id="Fill-16" fill="#1F2338" sketch:type="MSShapeGroup"></path>
                    <path d="M52.9718919,27.3393694 C52.9718919,36.0835135 45.8836036,43.1718018 37.1394595,43.1718018 C28.3944144,43.1718018 21.3061261,36.0835135 21.3061261,27.3393694 C21.3061261,18.5952252 28.3944144,11.5069369 37.1394595,11.5069369 C45.8836036,11.5069369 52.9718919,18.5952252 52.9718919,27.3393694" id="Fill-18" fill="#1F2338" sketch:type="MSShapeGroup"></path>
                    <path d="M17.1171171,57.4267568 L26.7711712,59.3907207" id="Stroke-20" stroke="#1F2338" stroke-width="2" stroke-linecap="round" stroke-linejoin="round" sketch:type="MSShapeGroup"></path>
                    <path d="M56.5004505,57.4267568 L46.8463964,59.3907207" id="Stroke-22" stroke="#1F2338" stroke-width="2" stroke-linecap="round" stroke-linejoin="round" sketch:type="MSShapeGroup"></path>
                    <path d="M53.3577477,88.2199099 C53.3577477,90.9226126 46.5505405,95.4676577 38.1541441,95.4676577 C29.7577477,95.4676577 22.9505405,90.9226126 22.9505405,88.2199099 C22.9505405,86.4181081 53.3577477,86.4181081 53.3577477,88.2199099" id="Fill-24" fill="#1F2338" sketch:type="MSShapeGroup"></path>
                    <path d="M79.62,51.9315315 C78.710991,54.1981982 60.4794595,49.018018 38.8983784,40.3612613 C17.3181982,31.7054054 0.560540541,22.8504505 1.46954955,20.5837838 C2.37855856,18.3171171 20.6100901,23.4972973 42.1911712,32.1540541 C63.7713514,40.8099099 80.529009,49.6648649 79.62,51.9315315" id="Fill-26" fill="#FFFFFF" sketch:type="MSShapeGroup"></path>
                    <path d="M79.62,51.9315315 C78.710991,54.1981982 60.4794595,49.018018 38.8983784,40.3612613 C17.3181982,31.7054054 0.560540541,22.8504505 1.46954955,20.5837838 C2.37855856,18.3171171 20.6100901,23.4972973 42.1911712,32.1540541 C63.7713514,40.8099099 80.529009,49.6648649 79.62,51.9315315 L79.62,51.9315315 Z" id="Stroke-28" stroke="#1F2338" stroke-width="2" sketch:type="MSShapeGroup"></path>
                    <path d="M55.3964865,4.25945946 C36.3343243,-3.89009009 10.7847748,6.78198198 4.99738739,20.318018 L77.6316216,49.8306306 C83.419009,36.2945946 74.4586486,12.409009 55.3964865,4.25945946" id="Fill-30" fill="#FFFFFF" sketch:type="MSShapeGroup"></path>
                    <path d="M55.3964865,4.25945946 C36.3343243,-3.89009009 10.7847748,6.78198198 4.99738739,20.318018 L77.6316216,49.8306306 C83.419009,36.2945946 74.4586486,12.409009 55.3964865,4.25945946 L55.3964865,4.25945946 Z" id="Stroke-32" stroke="#1F2338" stroke-width="2" sketch:type="MSShapeGroup"></path>
                </g>
            </g>
        </g>
    </g>
</svg>