<?xml version="1.0" encoding="UTF-8" standalone="no"?>
<svg width="88px" height="100px" viewBox="0 0 88 100" version="1.1" xmlns="http://www.w3.org/2000/svg" xmlns:xlink="http://www.w3.org/1999/xlink" xmlns:sketch="http://www.bohemiancoding.com/sketch/ns">
    <!-- Generator: Sketch 3.4.3 (16618) - http://www.bohemiancoding.com/sketch -->
    <title>大西</title>
    <desc>Created with Sketch.</desc>
    <defs>
        <path id="path-1" d="M0,0.622641509 L87.8433962,0.622641509 L87.8433962,100 L0,100"></path>
    </defs>
    <g id="Page-1" stroke="none" stroke-width="1" fill="none" fill-rule="evenodd" sketch:type="MSPage">
        <g id="Desktop" sketch:type="MSArtboardGroup" transform="translate(-467.000000, -1556.000000)">
            <g id="Group" sketch:type="MSLayerGroup" transform="translate(292.000000, 923.000000)">
                <g id="大西" transform="translate(175.000000, 633.000000)">
                    <g id="Group-3">
                        <mask id="mask-2" sketch:name="Clip 2" fill="white">
                            <use xlink:href="#path-1"></use>
                        </mask>
                        <g id="Clip-2"></g>
                        <path d="M87.8431132,56.1666038 C87.8431132,74.7713208 86.8572642,82.8609434 81.6770755,89.5996226 C79.0723585,92.9873585 68.1100943,99.9996226 68.1100943,99.9996226 C68.1100943,99.9996226 67.3374528,91.3996226 63.5742453,87.4477358 L23.8468868,87.7288679 C20.2987736,91.5722642 19.9987736,99.8081132 19.9987736,99.8081132 C19.9987736,99.8081132 8.945,93.1184906 6.30915094,89.7977358 C0.990283019,83.0977358 -0.000283018868,74.9807547 -0.000283018868,56.1666038 C-0.000283018868,31.7430189 9.00820755,0.622264151 43.9214151,0.622264151 C78.8195283,0.622264151 87.8431132,31.7430189 87.8431132,56.1666038" id="Fill-1" fill="#1F2338" sketch:type="MSShapeGroup" mask="url(#mask-2)"></path>
                    </g>
                    <path d="M78.8172642,52.3461321 C78.8172642,71.6234906 79.6842453,87.2508491 43.9125472,87.2508491 C9.00783019,87.2508491 9.00783019,71.6234906 9.00783019,52.3461321 C9.00783019,33.0687736 24.6351887,17.4414151 43.9125472,17.4414151 C63.1899057,17.4414151 78.8172642,33.0687736 78.8172642,52.3461321" id="Fill-4" fill="#FFFFFF" sketch:type="MSShapeGroup"></path>
                    <path d="M78.8172642,52.3461321 C78.8172642,71.6234906 79.6842453,87.2508491 43.9125472,87.2508491 C9.00783019,87.2508491 9.00783019,71.6234906 9.00783019,52.3461321 C9.00783019,33.0687736 24.6351887,17.4414151 43.9125472,17.4414151 C63.1899057,17.4414151 78.8172642,33.0687736 78.8172642,52.3461321 L78.8172642,52.3461321 Z" id="Stroke-6" stroke="#1F2338" stroke-width="2" sketch:type="MSShapeGroup"></path>
                    <path d="M26.6683962,73.41 C26.6683962,77.0939623 23.6816038,80.0807547 19.9976415,80.0807547 C16.3127358,80.0807547 13.3259434,77.0939623 13.3259434,73.41 C13.3259434,69.7260377 16.3127358,66.7392453 19.9976415,66.7392453 C23.6816038,66.7392453 26.6683962,69.7260377 26.6683962,73.41" id="Fill-8" fill="#CC1457" sketch:type="MSShapeGroup"></path>
                    <path d="M74.7816038,73.41 C74.7816038,77.0939623 71.7948113,80.0807547 68.1108491,80.0807547 C64.4259434,80.0807547 61.4391509,77.0939623 61.4391509,73.41 C61.4391509,69.7260377 64.4259434,66.7392453 68.1108491,66.7392453 C71.7948113,66.7392453 74.7816038,69.7260377 74.7816038,73.41" id="Fill-10" fill="#CC1457" sketch:type="MSShapeGroup"></path>
                    <path d="M80.4292453,36.6249057 C85.2235849,51.3541509 68.9650943,50.3862264 44.0216981,50.3862264 C18.7311321,50.3862264 2.73490566,51.3154717 7.61320755,36.6249057 C16.0641509,11.1796226 29.1037736,7.00320755 44.0216981,7.00320755 C60.2216981,7.00320755 72.5207547,12.330566 80.4292453,36.6249057" id="Fill-12" fill="#1F2338" sketch:type="MSShapeGroup"></path>
                    <path d="M32.4106604,60.4496226 C32.4106604,62.5335849 30.0342453,64.2232075 27.1021698,64.2232075 C24.1710377,64.2232075 21.7936792,62.5335849 21.7936792,60.4496226 C21.7936792,58.3656604 24.1710377,56.6760377 27.1021698,56.6760377 C30.0342453,56.6760377 32.4106604,58.3656604 32.4106604,60.4496226" id="Fill-14" fill="#1F2338" sketch:type="MSShapeGroup"></path>
                    <path d="M66.1337736,60.4496226 C66.1337736,62.5335849 63.7573585,64.2232075 60.825283,64.2232075 C57.8941509,64.2232075 55.5167925,62.5335849 55.5167925,60.4496226 C55.5167925,58.3656604 57.8941509,56.6760377 60.825283,56.6760377 C63.7573585,56.6760377 66.1337736,58.3656604 66.1337736,60.4496226" id="Fill-16" fill="#1F2338" sketch:type="MSShapeGroup"></path>
                    <path d="M54.139434,54.4782075 C54.139434,54.4782075 56.8630189,53.1716038 60.0979245,52.7489623 C63.4111321,52.3168868 66.3007547,52.8914151 66.3007547,52.8914151" id="Stroke-18" stroke="#1F2338" stroke-linecap="round" stroke-linejoin="round" sketch:type="MSShapeGroup"></path>
                    <path d="M33.2816038,54.4782075 C33.2816038,54.4782075 30.5580189,53.1716038 27.3231132,52.7489623 C24.0099057,52.3168868 21.120283,52.8914151 21.120283,52.8914151" id="Stroke-20" stroke="#1F2338" stroke-linecap="round" stroke-linejoin="round" sketch:type="MSShapeGroup"></path>
                    <path d="M55.3636792,74.9150943 C55.3636792,77.745283 50.5061321,80.2584906 44.5146226,80.2584906 C38.5231132,80.2584906 33.665566,77.745283 33.665566,74.9150943 C33.665566,73.9716981 55.3636792,73.9716981 55.3636792,74.9150943" id="Fill-22" fill="#1F2338" sketch:type="MSShapeGroup"></path>
                </g>
            </g>
        </g>
    </g>
</svg>