<?xml version="1.0" encoding="UTF-8" standalone="no"?>
<svg width="85px" height="91px" viewBox="0 0 85 91" version="1.1" xmlns="http://www.w3.org/2000/svg" xmlns:xlink="http://www.w3.org/1999/xlink" xmlns:sketch="http://www.bohemiancoding.com/sketch/ns">
    <!-- Generator: Sketch 3.4.3 (16618) - http://www.bohemiancoding.com/sketch -->
    <title>河原塚</title>
    <desc>Created with Sketch.</desc>
    <defs>
        <path id="path-1" d="M0,0.569368421 L84.7847368,0.569368421 L84.7847368,90 L0,90"></path>
    </defs>
    <g id="Page-1" stroke="none" stroke-width="1" fill="none" fill-rule="evenodd" sketch:type="MSPage">
        <g id="Desktop" sketch:type="MSArtboardGroup" transform="translate(-469.000000, -1135.000000)">
            <g id="Group" sketch:type="MSLayerGroup" transform="translate(292.000000, 923.000000)">
                <g id="河原塚" transform="translate(177.000000, 212.000000)">
                    <g id="Group-24">
                        <g id="Group-3">
                            <mask id="mask-2" sketch:name="Clip 2" fill="white">
                                <use xlink:href="#path-1"></use>
                            </mask>
                            <g id="Clip-2"></g>
                            <path d="M80.9060211,46.9426737 C87.4798105,74.4542526 91.5790737,89.5259368 42.1122316,89.5259368 C-6.15618947,89.5259368 -2.52018947,73.3486737 3.31749474,46.9426737 C9.07275789,20.9137263 15.4542316,0.569936842 42.1122316,0.569936842 C68.7692842,0.569936842 74.7111789,21.0150947 80.9060211,46.9426737" id="Fill-1" fill="#1F2338" sketch:type="MSShapeGroup" mask="url(#mask-2)"></path>
                        </g>
                        <path d="M74.8989474,48.2797895 C74.8989474,70.7977895 83.9141053,89.0526316 42.1285263,89.0526316 C1.35568421,89.0526316 9.35810526,70.7977895 9.35810526,48.2797895 C9.35810526,25.7617895 19.6105263,7.50694737 42.1285263,7.50694737 C64.6465263,7.50694737 74.8989474,25.7617895 74.8989474,48.2797895" id="Fill-4" fill="#FFFFFF" sketch:type="MSShapeGroup"></path>
                        <path d="M74.8989474,48.2797895 C74.8989474,70.7977895 83.9141053,89.0526316 42.1285263,89.0526316 C1.35568421,89.0526316 9.35810526,70.7977895 9.35810526,48.2797895 C9.35810526,25.7617895 19.6105263,7.50694737 42.1285263,7.50694737 C64.6465263,7.50694737 74.8989474,25.7617895 74.8989474,48.2797895 L74.8989474,48.2797895 Z" id="Stroke-6" stroke="#1F2338" stroke-width="2" sketch:type="MSShapeGroup"></path>
                        <path d="M74.8364211,34.9698316 C79.1317895,49.6843579 64.566,48.7170947 42.2194737,48.7170947 C19.5631579,48.7170947 5.23231579,49.6455158 9.60252632,34.9698316 C17.1729474,9.55004211 28.8549474,5.37877895 42.2194737,5.37877895 C56.7331579,5.37877895 67.752,10.7001474 74.8364211,34.9698316" id="Fill-8" fill="#1F2338" sketch:type="MSShapeGroup"></path>
                        <path d="M30.4796842,58.8227684 C30.4796842,60.3925579 28.0762105,61.6648737 25.1109474,61.6648737 C22.1466316,61.6648737 19.7431579,60.3925579 19.7431579,58.8227684 C19.7431579,57.2529789 22.1466316,55.9806632 25.1109474,55.9806632 C28.0762105,55.9806632 30.4796842,57.2529789 30.4796842,58.8227684" id="Fill-10" fill="#1F2338" sketch:type="MSShapeGroup"></path>
                        <path d="M64.5849474,58.8227684 C64.5849474,60.3925579 62.1814737,61.6648737 59.2162105,61.6648737 C56.2518947,61.6648737 53.8484211,60.3925579 53.8484211,58.8227684 C53.8484211,57.2529789 56.2518947,55.9806632 59.2162105,55.9806632 C62.1814737,55.9806632 64.5849474,57.2529789 64.5849474,58.8227684" id="Fill-12" fill="#1F2338" sketch:type="MSShapeGroup"></path>
                        <path d="M23.8481053,71.8377158 C23.8481053,75.5371895 20.8487368,78.5365579 17.1492632,78.5365579 C13.4488421,78.5365579 10.4494737,75.5371895 10.4494737,71.8377158 C10.4494737,68.1382421 13.4488421,65.1388737 17.1492632,65.1388737 C20.8487368,65.1388737 23.8481053,68.1382421 23.8481053,71.8377158" id="Fill-14" fill="#CC1457" sketch:type="MSShapeGroup"></path>
                        <path d="M74.0586316,71.8377158 C74.0586316,75.5371895 71.0592632,78.5365579 67.3597895,78.5365579 C63.6593684,78.5365579 60.66,75.5371895 60.66,71.8377158 C60.66,68.1382421 63.6593684,65.1388737 67.3597895,65.1388737 C71.0592632,65.1388737 74.0586316,68.1382421 74.0586316,71.8377158" id="Fill-16" fill="#CC1457" sketch:type="MSShapeGroup"></path>
                        <path d="M52.3821789,51.8788421 C52.3821789,51.8788421 55.1172316,50.5667368 58.3657579,50.1423158 C61.6929158,49.7084211 64.5947053,50.2853684 64.5947053,50.2853684" id="Stroke-18" stroke="#1F2338" stroke-linecap="round" stroke-linejoin="round" sketch:type="MSShapeGroup"></path>
                        <path d="M31.4365263,51.8788421 C31.4365263,51.8788421 28.7014737,50.5667368 25.4529474,50.1423158 C22.1257895,49.7084211 19.224,50.2853684 19.224,50.2853684" id="Stroke-20" stroke="#1F2338" stroke-linecap="round" stroke-linejoin="round" sketch:type="MSShapeGroup"></path>
                        <path d="M56.0586316,77.1386211 C56.0586316,79.9807263 50.1224211,84.6389368 42.8002105,84.6389368 C35.478,84.6389368 29.5417895,79.9807263 29.5417895,77.1386211 C29.5417895,75.2438842 56.0586316,75.2438842 56.0586316,77.1386211" id="Fill-22" fill="#1F2338" sketch:type="MSShapeGroup"></path>
                    </g>
                    <path d="M61.9906737,49.3562842 L59.6108842,32.2960737 L66.5475158,48.0631263 L61.9906737,49.3562842 Z" id="Fill-25" fill="#FFFFFF" sketch:type="MSShapeGroup"></path>
                </g>
            </g>
        </g>
    </g>
</svg>