<?xml version="1.0" encoding="UTF-8" standalone="no"?>
<svg width="100px" height="82px" viewBox="0 0 100 82" version="1.1" xmlns="http://www.w3.org/2000/svg" xmlns:xlink="http://www.w3.org/1999/xlink" xmlns:sketch="http://www.bohemiancoding.com/sketch/ns">
    <!-- Generator: Sketch 3.4.3 (16618) - http://www.bohemiancoding.com/sketch -->
    <title>高野</title>
    <desc>Created with Sketch.</desc>
    <defs>
        <path id="path-1" d="M0,0.5824 L99.328,0.5824 L99.328,81.6 L0,81.6"></path>
    </defs>
    <g id="Page-1" stroke="none" stroke-width="1" fill="none" fill-rule="evenodd" sketch:type="MSPage">
        <g id="Desktop" sketch:type="MSArtboardGroup" transform="translate(-633.000000, -928.000000)">
            <g id="Group" sketch:type="MSLayerGroup" transform="translate(292.000000, 923.000000)">
                <g id="高野" transform="translate(341.000000, 5.000000)">
                    <path d="M13.72808,49.6548 C13.72808,53.0036 11.01288,55.7188 7.66408,55.7188 C4.31528,55.7188 1.60008,53.0036 1.60008,49.6548 C1.60008,46.306 4.31528,43.5908 7.66408,43.5908 C11.01288,43.5908 13.72808,46.306 13.72808,49.6548" id="Fill-1" fill="#1F2338" sketch:type="MSShapeGroup"></path>
                    <path d="M12.12808,58.4548 C12.12808,61.8036 9.41288,64.5188 6.06408,64.5188 C2.71528,64.5188 8e-05,61.8036 8e-05,58.4548 C8e-05,55.106 2.71528,52.3908 6.06408,52.3908 C9.41288,52.3908 12.12808,55.106 12.12808,58.4548" id="Fill-3" fill="#1F2338" sketch:type="MSShapeGroup"></path>
                    <path d="M14.52808,66.4548 C14.52808,69.8036 11.81288,72.5188 8.46408,72.5188 C5.11528,72.5188 2.40008,69.8036 2.40008,66.4548 C2.40008,63.106 5.11528,60.3908 8.46408,60.3908 C11.81288,60.3908 14.52808,63.106 14.52808,66.4548" id="Fill-5" fill="#1F2338" sketch:type="MSShapeGroup"></path>
                    <path d="M20.92808,70.4548 C20.92808,73.8036 18.21288,76.5188 14.86408,76.5188 C11.51528,76.5188 8.80008,73.8036 8.80008,70.4548 C8.80008,67.106 11.51528,64.3908 14.86408,64.3908 C18.21288,64.3908 20.92808,67.106 20.92808,70.4548" id="Fill-7" fill="#1F2338" sketch:type="MSShapeGroup"></path>
                    <path d="M85.6,49.6548 C85.6,53.0036 88.3152,55.7188 91.664,55.7188 C95.0128,55.7188 97.728,53.0036 97.728,49.6548 C97.728,46.306 95.0128,43.5908 91.664,43.5908 C88.3152,43.5908 85.6,46.306 85.6,49.6548" id="Fill-9" fill="#1F2338" sketch:type="MSShapeGroup"></path>
                    <path d="M87.2,58.4548 C87.2,61.8036 89.9152,64.5188 93.264,64.5188 C96.6128,64.5188 99.328,61.8036 99.328,58.4548 C99.328,55.106 96.6128,52.3908 93.264,52.3908 C89.9152,52.3908 87.2,55.106 87.2,58.4548" id="Fill-11" fill="#1F2338" sketch:type="MSShapeGroup"></path>
                    <path d="M84.8,66.4548 C84.8,69.8036 87.5152,72.5188 90.864,72.5188 C94.2128,72.5188 96.928,69.8036 96.928,66.4548 C96.928,63.106 94.2128,60.3908 90.864,60.3908 C87.5152,60.3908 84.8,63.106 84.8,66.4548" id="Fill-13" fill="#1F2338" sketch:type="MSShapeGroup"></path>
                    <path d="M78.4,70.4548 C78.4,73.8036 81.1152,76.5188 84.464,76.5188 C87.8128,76.5188 90.528,73.8036 90.528,70.4548 C90.528,67.106 87.8128,64.3908 84.464,64.3908 C81.1152,64.3908 78.4,67.106 78.4,70.4548" id="Fill-15" fill="#1F2338" sketch:type="MSShapeGroup"></path>
                    <g id="Group-19">
                        <mask id="mask-2" sketch:name="Clip 18" fill="white">
                            <use xlink:href="#path-1"></use>
                        </mask>
                        <g id="Clip-18"></g>
                        <path d="M91.78584,40.98224 C96.80424,62.54224 98.50104,81.38224 49.56424,81.38224 C-0.02216,81.38224 2.03464,62.55584 7.34264,40.98224 C12.53704,19.86864 30.07144,0.58224 49.56424,0.58224 C69.05704,0.58224 86.77864,19.47264 91.78584,40.98224" id="Fill-17" fill="#1F2338" sketch:type="MSShapeGroup" mask="url(#mask-2)"></path>
                    </g>
                    <path d="M84.59272,47.27672 C88.75752,65.16712 84.59272,80.79992 49.55752,80.79992 C14.52312,80.79992 10.11832,65.17832 14.52312,47.27672 C18.83352,29.75672 33.38312,13.75352 49.55752,13.75352 C65.73272,13.75352 80.43832,29.42792 84.59272,47.27672" id="Fill-20" fill="#FFFFFF" sketch:type="MSShapeGroup"></path>
                    <path d="M84.59272,47.27672 C88.75752,65.16712 84.59272,80.79992 49.55752,80.79992 C14.52312,80.79992 10.11832,65.17832 14.52312,47.27672 C18.83352,29.75672 33.38312,13.75352 49.55752,13.75352 C65.73272,13.75352 80.43832,29.42792 84.59272,47.27672 L84.59272,47.27672 Z" id="Stroke-22" stroke="#1F2338" stroke-width="2" sketch:type="MSShapeGroup"></path>
                    <path d="M13.03568,42.9292 C17.29808,24.6188 32.38368,8.5388 48.97648,8.5388 C51.60448,8.5388 54.19008,8.954 56.69968,9.718 C57.55568,9.9788 58.40128,10.2844 59.23808,10.6252 C71.43488,15.59 81.43408,28.774 84.91728,42.9292 C85.80128,46.5236 86.33728,50.0268 86.36128,53.3388 C80.99488,53.3604 70.62688,39.39 70.62688,39.39 C70.62688,39.39 65.74848,30.754 64.29408,26.0796 C60.75808,32.1388 55.41088,37.43 48.33248,41.7596 C35.19808,49.7924 19.72288,50.1052 12.15168,47.5228 C12.37648,46.014 12.67488,44.4796 13.03568,42.9292" id="Fill-24" fill="#1F2338" sketch:type="MSShapeGroup"></path>
                    <path d="M41.12808,48.58816 L23.07288,47.35616" id="Stroke-26" stroke="#1F2338" stroke-width="3" stroke-linecap="round" stroke-linejoin="round" sketch:type="MSShapeGroup"></path>
                    <path d="M57.47272,48.58816 L75.52792,47.35616" id="Stroke-28" stroke="#1F2338" stroke-width="3" stroke-linecap="round" stroke-linejoin="round" sketch:type="MSShapeGroup"></path>
                    <path d="M37.72808,59.2548 C37.72808,61.3164 35.69848,62.9884 33.19448,62.9884 C30.69128,62.9884 28.66168,61.3164 28.66168,59.2548 C28.66168,57.1932 30.69128,55.5212 33.19448,55.5212 C35.69848,55.5212 37.72808,57.1932 37.72808,59.2548" id="Fill-30" fill="#1F2338" sketch:type="MSShapeGroup"></path>
                    <path d="M69.72808,59.2548 C69.72808,61.3164 67.69848,62.9884 65.19448,62.9884 C62.69128,62.9884 60.66168,61.3164 60.66168,59.2548 C60.66168,57.1932 62.69128,55.5212 65.19448,55.5212 C67.69848,55.5212 69.72808,57.1932 69.72808,59.2548" id="Fill-32" fill="#1F2338" sketch:type="MSShapeGroup"></path>
                    <path d="M28.12808,65.97848 C28.12808,69.10248 25.59528,71.63528 22.47128,71.63528 C19.34648,71.63528 16.81368,69.10248 16.81368,65.97848 C16.81368,62.85448 19.34648,60.32168 22.47128,60.32168 C25.59528,60.32168 28.12808,62.85448 28.12808,65.97848" id="Fill-34" fill="#CC1457" sketch:type="MSShapeGroup"></path>
                    <path d="M80.92808,66.77848 C80.92808,69.90248 78.39528,72.43528 75.27128,72.43528 C72.14648,72.43528 69.61368,69.90248 69.61368,66.77848 C69.61368,63.65448 72.14648,61.12168 75.27128,61.12168 C78.39528,61.12168 80.92808,63.65448 80.92808,66.77848" id="Fill-36" fill="#CC1457" sketch:type="MSShapeGroup"></path>
                    <path d="M63.13736,70.4548 C63.13736,72.8548 57.09256,76.8908 49.63656,76.8908 C42.18056,76.8908 36.13576,72.8548 36.13576,70.4548 C36.13576,68.8548 63.13736,68.8548 63.13736,70.4548" id="Fill-38" fill="#1F2338" sketch:type="MSShapeGroup"></path>
                </g>
            </g>
        </g>
    </g>
</svg>