<?xml version="1.0" encoding="UTF-8" standalone="no"?>
<svg width="89px" height="97px" viewBox="0 0 89 97" version="1.1" xmlns="http://www.w3.org/2000/svg" xmlns:xlink="http://www.w3.org/1999/xlink" xmlns:sketch="http://www.bohemiancoding.com/sketch/ns">
    <!-- Generator: Sketch 3.4.3 (16618) - http://www.bohemiancoding.com/sketch -->
    <title>武田</title>
    <desc>Created with Sketch.</desc>
    <defs>
        <path id="path-1" d="M0,0.850162162 L88.1721081,0.850162162 L88.1721081,96 L0,96"></path>
    </defs>
    <g id="Page-1" stroke="none" stroke-width="1" fill="none" fill-rule="evenodd" sketch:type="MSPage">
        <g id="Desktop" sketch:type="MSArtboardGroup" transform="translate(-298.000000, -923.000000)">
            <g id="Group" sketch:type="MSLayerGroup" transform="translate(292.000000, 923.000000)">
                <g id="武田" transform="translate(6.000000, 0.000000)">
                    <path d="M79.3745297,55.4608432 C79.3745297,77.3721946 80.2739892,95.1347892 43.1721514,95.1347892 C6.97063784,95.1347892 6.97063784,77.3721946 6.97063784,55.4608432 C6.97063784,33.5494919 23.1790703,15.7868973 43.1721514,15.7868973 C63.1660973,15.7868973 79.3745297,33.5494919 79.3745297,55.4608432" id="Fill-1" fill="#FFFFFF" sketch:type="MSShapeGroup"></path>
                    <path d="M79.3745297,55.4608432 C79.3745297,77.3721946 80.2739892,95.1347892 43.1721514,95.1347892 C6.97063784,95.1347892 6.97063784,77.3721946 6.97063784,55.4608432 C6.97063784,33.5494919 23.1790703,15.7868973 43.1721514,15.7868973 C63.1660973,15.7868973 79.3745297,33.5494919 79.3745297,55.4608432 L79.3745297,55.4608432 Z" id="Stroke-3" stroke="#1F2338" stroke-width="2" sketch:type="MSShapeGroup"></path>
                    <path d="M20.0443676,11.5675676 L21.0216649,10.9016216" id="Stroke-5" stroke="#000000" stroke-width="2" sketch:type="MSShapeGroup"></path>
                    <path d="M34.4980757,57.6576865 L14.9789405,56.3257946" id="Stroke-7" stroke="#1F2338" stroke-width="5" stroke-linecap="round" stroke-linejoin="round" sketch:type="MSShapeGroup"></path>
                    <path d="M52.1679568,57.6576865 L71.6870919,56.3257946" id="Stroke-9" stroke="#1F2338" stroke-width="5" stroke-linecap="round" stroke-linejoin="round" sketch:type="MSShapeGroup"></path>
                    <path d="M43.1923027,4.32432432 C16.4169514,4.32432432 4.22668108,26.0298378 4.22668108,52.8051892 C4.22668108,54.3109189 4.19554595,55.8002162 4.14797838,57.2704865 C14.4822486,57.2315676 26.9060324,49.9727568 35.9084108,37.6216216 C38.7754378,33.6873514 41.0370595,29.580973 42.6976,25.4918919 C44.3581405,29.580973 46.620627,33.6873514 49.4876541,37.6216216 C58.7814919,50.3731892 71.7233297,57.6994595 82.2470054,57.2540541 C82.1925189,55.788973 82.1579243,54.3057297 82.1579243,52.8051892 C82.1579243,26.0298378 69.9676541,4.32432432 43.1923027,4.32432432" id="Fill-11" fill="#1F2338" sketch:type="MSShapeGroup"></path>
                    <path d="M68.8762811,37.6121081 C67.782227,46.0678919 73.0034162,54.6058378 68.9082811,55.6056216 C65.5059027,56.4367568 54.5463351,51.0054054 50.0326054,42.3731892 C46.0715243,34.7978378 49.8207135,26.2607568 57.1063351,25.1113514 C64.3919568,23.9619459 69.9668757,29.1865946 68.8762811,37.6121081" id="Fill-13" fill="#1F2338" sketch:type="MSShapeGroup"></path>
                    <g id="Group-17">
                        <mask id="mask-2" sketch:name="Clip 16" fill="white">
                            <use xlink:href="#path-1"></use>
                        </mask>
                        <g id="Clip-16"></g>
                        <path d="M16.1124324,55.8619676 C12.0397838,62.5421838 12.723027,71.6474811 9.23502703,70.9581838 C6.33772973,70.3847784 0.111567568,61.7430486 0.000864864865,52.8228324 C-0.096,44.9949405 6.02032432,39.2366703 11.9844324,40.9914811 C17.9485405,42.745427 20.1703784,49.2051027 16.1124324,55.8619676" id="Fill-15" fill="#1F2338" sketch:type="MSShapeGroup" mask="url(#mask-2)"></path>
                    </g>
                    <path d="M69.2362378,49.1590919 C74.2939676,57.2187676 73.8191568,68.2924973 77.9160216,67.4060108 C81.3201297,66.6682811 88.3627243,56.0788757 88.1672649,45.2386595 C87.9968865,35.7242811 80.5564541,28.8140108 73.5718054,31.0306595 C66.5871568,33.2473081 64.1966703,41.1279568 69.2362378,49.1590919" id="Fill-18" fill="#1F2338" sketch:type="MSShapeGroup"></path>
                    <path d="M25.1313297,22.3272649 C17.1797622,23.459373 10.0576,29.4667243 8.54841081,26.5512649 C7.29522162,24.1296432 10.7313297,14.435373 18.0411676,8.9504 C24.4576,4.13656216 32.8649514,5.02737297 34.9683027,10.3601297 C37.0725189,15.6928865 33.0543568,21.1986162 25.1313297,22.3272649" id="Fill-20" fill="#1F2338" sketch:type="MSShapeGroup"></path>
                    <path d="M44.2565189,15.0741622 C52.5263568,13.2077838 61.964627,15.7392432 62.2604108,12.7502703 C62.5060324,10.2663784 55.1884108,3.32410811 45.7778162,1.29859459 C37.5192216,-0.477837838 29.6247351,3.25232432 29.7276541,8.48821622 C29.8314378,13.7241081 36.0160865,16.9336216 44.2565189,15.0741622" id="Fill-22" fill="#1F2338" sketch:type="MSShapeGroup"></path>
                    <path d="M18.9216865,39.1763027 C12.3884973,45.7094919 10.1113081,56.1968432 6.63022703,54.5311135 C3.73811892,53.1473297 -0.0309621622,41.7786811 2.79368649,31.6476541 C5.27238919,22.7559784 13.6754162,17.7856 19.4380108,21.2857081 C25.2006054,24.7858162 25.4323892,32.6656 18.9216865,39.1763027" id="Fill-24" fill="#1F2338" sketch:type="MSShapeGroup"></path>
                    <path d="M52.2803892,28.7244108 C52.9679568,37.8444108 61.0994162,45.0297081 56.518227,47.3769514 C52.7119568,49.3272216 38.5584432,47.1996541 31.2373622,39.6908973 C24.8122811,33.0997622 27.2278486,23.046573 35.5244973,19.5231135 C43.8220108,16.0005189 51.5954162,19.6364108 52.2803892,28.7244108" id="Fill-26" fill="#1F2338" sketch:type="MSShapeGroup"></path>
                    <path d="M23.9033946,82.5120865 C23.9033946,85.8893838 21.1652324,88.6275459 17.7879351,88.6275459 C14.409773,88.6275459 11.6716108,85.8893838 11.6716108,82.5120865 C11.6716108,79.1347892 14.409773,76.396627 17.7879351,76.396627 C21.1652324,76.396627 23.9033946,79.1347892 23.9033946,82.5120865" id="Fill-28" fill="#CC1457" sketch:type="MSShapeGroup"></path>
                    <path d="M74.0655568,83.3769514 C74.0655568,86.7542486 71.3273946,89.4924108 67.9500973,89.4924108 C64.5719351,89.4924108 61.833773,86.7542486 61.833773,83.3769514 C61.833773,79.9996541 64.5719351,77.2614919 67.9500973,77.2614919 C71.3273946,77.2614919 74.0655568,79.9996541 74.0655568,83.3769514" id="Fill-30" fill="#CC1457" sketch:type="MSShapeGroup"></path>
                    <path d="M38.1159784,69.315373 C37.3964108,75.2535351 31.1088432,79.3754811 24.0714378,78.5227243 C17.0340324,77.6699676 11.9123027,72.1659676 12.6310054,66.2278054 C13.350573,60.2896432 19.0595459,60.9460757 26.0969514,61.7988324 C33.1343568,62.6515892 38.8355459,63.3772108 38.1159784,69.315373 L38.1159784,69.315373 Z" id="Stroke-32" stroke="#1F2338" stroke-width="2" stroke-linecap="round" stroke-linejoin="round" sketch:type="MSShapeGroup"></path>
                    <path d="M47.9699892,69.315373 C48.6895568,75.2535351 54.9771243,79.3754811 62.0145297,78.5227243 C69.0519351,77.6699676 74.1736649,72.1659676 73.4549622,66.2278054 C72.7353946,60.2896432 67.0264216,60.9460757 59.9890162,61.7988324 C52.9516108,62.6515892 47.2504216,63.3772108 47.9699892,69.315373 L47.9699892,69.315373 Z" id="Stroke-34" stroke="#1F2338" stroke-width="2" stroke-linecap="round" stroke-linejoin="round" sketch:type="MSShapeGroup"></path>
                    <path d="M38.6060973,69.1891892 L47.2547459,69.1891892" id="Stroke-36" stroke="#1F2338" stroke-width="2" stroke-linecap="round" stroke-linejoin="round" sketch:type="MSShapeGroup"></path>
                    <path d="M73.3952,65.024 L82.1372541,62.2633514" id="Stroke-38" stroke="#1F2338" stroke-width="2" stroke-linecap="round" stroke-linejoin="round" sketch:type="MSShapeGroup"></path>
                    <path d="M12.4657297,65.024 L3.72367568,62.2633514" id="Stroke-40" stroke="#1F2338" stroke-width="2" stroke-linecap="round" stroke-linejoin="round" sketch:type="MSShapeGroup"></path>
                    <path d="M8.99208649,36.5081946 C8.30451892,45.6281946 0.173059459,52.8134919 4.75424865,55.1607351 C8.56051892,57.1110054 22.7140324,54.9834378 30.0351135,47.4746811 C36.4601946,40.8835459 34.044627,30.8303568 25.7479784,27.3068973 C17.4504649,23.7843027 9.67705946,27.4201946 8.99208649,36.5081946" id="Fill-42" fill="#1F2338" sketch:type="MSShapeGroup"></path>
                    <path d="M57.4269405,84.7567568 C57.4269405,87.3513514 50.8920216,91.7145946 42.8314811,91.7145946 C34.7709405,91.7145946 28.2360216,87.3513514 28.2360216,84.7567568 C28.2360216,83.027027 57.4269405,83.027027 57.4269405,84.7567568" id="Fill-44" fill="#1F2338" sketch:type="MSShapeGroup"></path>
                    <path d="M30.8223135,69.1891892 C30.8223135,71.4179459 28.6281514,73.2255135 25.9211243,73.2255135 C23.2149622,73.2255135 21.0208,71.4179459 21.0208,69.1891892 C21.0208,66.9604324 23.2149622,65.1528649 25.9211243,65.1528649 C28.6281514,65.1528649 30.8223135,66.9604324 30.8223135,69.1891892" id="Fill-46" fill="#1F2338" sketch:type="MSShapeGroup"></path>
                    <path d="M65.4169081,69.1891892 C65.4169081,71.4179459 63.2227459,73.2255135 60.5157189,73.2255135 C57.8095568,73.2255135 55.6153946,71.4179459 55.6153946,69.1891892 C55.6153946,66.9604324 57.8095568,65.1528649 60.5157189,65.1528649 C63.2227459,65.1528649 65.4169081,66.9604324 65.4169081,69.1891892" id="Fill-48" fill="#1F2338" sketch:type="MSShapeGroup"></path>
                    <path d="M65.0853189,28.2036757 C75.5346162,31.2125405 84.1772108,40.3619459 86.6092108,36.8869189 C88.6295351,34 85.4373189,20.8004324 76.4686703,12.2901622 C68.5975351,4.82032432 57.2505081,4.33772973 53.6760216,10.8224865 C50.1024,17.3081081 54.6732108,25.2051892 65.0853189,28.2036757" id="Fill-50" fill="#1F2338" sketch:type="MSShapeGroup"></path>
                </g>
            </g>
        </g>
    </g>
</svg>